<?xml version="1.0" encoding="UTF-8" standalone="no"?>
<svg
   xmlns:dc="http://purl.org/dc/elements/1.1/"
   xmlns:cc="http://creativecommons.org/ns#"
   xmlns:rdf="http://www.w3.org/1999/02/22-rdf-syntax-ns#"
   xmlns:svg="http://www.w3.org/2000/svg"
   xmlns="http://www.w3.org/2000/svg"
   viewBox="0 0 940.396 421.44934"
   height="421.44934"
   width="940.396"
   xml:space="preserve"
   id="svg2"
   version="1.1"><metadata
     id="metadata8"><rdf:RDF><cc:Work
         rdf:about=""><dc:format>image/svg+xml</dc:format><dc:type
           rdf:resource="http://purl.org/dc/dcmitype/StillImage" /></cc:Work></rdf:RDF></metadata><defs
     id="defs6"><clipPath
       id="clipPath22"
       clipPathUnits="userSpaceOnUse"><path
         id="path20"
         d="M 0,316.087 H 705.297 V 0 H 0 Z" /></clipPath></defs><g
     transform="matrix(1.3333333,0,0,-1.3333333,0,421.44933)"
     id="g10"><g
       transform="translate(327.4867,117.2041)"
       id="g12"><path
         id="path14"
         style="fill:#323031;fill-opacity:1;fill-rule:nonzero;stroke:none"
         d="M 0,0 -8.464,-13.609 -16.951,0 l -5.456,0.013 11.194,-17.998 -11.187,-17.988 5.479,0.008 8.457,13.559 8.433,-13.559 5.48,-0.008 -11.186,17.987 11.193,17.999 z" /></g><g
       id="g16"><g
         clip-path="url(#clipPath22)"
         id="g18"><g
           transform="translate(345.4056,99.3975)"
           id="g24"><path
             id="path26"
             style="fill:#323031;fill-opacity:1;fill-rule:nonzero;stroke:none"
             d="m 0,0 h -5.979 v 12.932 c 0,0.324 0,0.481 0.556,0.579 h 6.28 c 2.062,0 3.622,-0.594 4.765,-1.809 C 6.751,10.485 7.3,8.867 7.3,6.755 7.3,4.571 6.653,2.931 5.319,1.737 4.021,0.568 2.281,0 0,0 m 0.874,18.252 -6.205,0.023 c -1.282,0 -2.446,-0.359 -3.465,-1.073 -1.38,-0.976 -2.109,-2.461 -2.109,-4.293 v -31.092 h 4.926 v 13.418 h 5.26 c 3.914,0 7.011,0.994 9.203,2.957 2.56,2.295 3.859,5.192 3.859,8.61 0,3.404 -1.072,6.195 -3.189,8.294 -2.113,2.094 -4.9,3.156 -8.28,3.156" /></g><path
           id="path28"
           style="fill:#323031;fill-opacity:1;fill-rule:nonzero;stroke:none"
           d="m 361.03,81.215 h 4.927 v 35.996 h -4.927 z" /><g
           transform="translate(397.7836,117.4883)"
           id="g30"><path
             id="path32"
             style="fill:#323031;fill-opacity:1;fill-rule:nonzero;stroke:none"
             d="m 0,0 c -2.005,0 -3.46,-1.149 -4.096,-3.244 l -7.629,-25.63 -7.604,25.622 C -19.94,-1.155 -21.371,0 -23.358,0 c -2.502,0 -3.995,-1.512 -3.995,-4.045 v -32.274 h 4.928 v 26.344 l 6.629,-22.331 c 0.977,-3.318 2.759,-4.013 4.082,-4.013 1.323,0 3.106,0.695 4.081,4.009 L -0.98,-9.896 V -36.25 H 3.947 V -4.025 C 3.947,-1.505 2.472,0 0,0" /></g><g
           transform="translate(282.9545,71.7236)"
           id="g34"><path
             id="path36"
             style="fill:#323031;fill-opacity:1;fill-rule:nonzero;stroke:none"
             d="M 0,0 C 0,1.01 -0.225,1.867 -1.245,1.867 -2.266,1.867 -2.49,1.01 -2.49,0 c 0,-1.021 0.224,-1.857 1.245,-1.857 C -0.225,-1.857 0,-1.021 0,0 m -3.714,-0.01 c 0,1.52 0.51,2.795 2.469,2.795 1.959,0 2.47,-1.275 2.47,-2.785 0,-1.521 -0.511,-2.775 -2.47,-2.775 -1.959,0 -2.469,1.245 -2.469,2.765" /></g><g
           transform="translate(288.8314,69.0703)"
           id="g38"><path
             id="path40"
             style="fill:#323031;fill-opacity:1;fill-rule:nonzero;stroke:none"
             d="m 0,0 c -0.143,0 -0.173,0.062 -0.204,0.204 l -0.102,0.419 h -0.02 c -0.245,-0.479 -0.837,-0.745 -1.358,-0.745 -1.131,0 -2.05,0.725 -2.05,2 v 3.224 c 0,0.143 0.061,0.204 0.194,0.204 h 0.836 c 0.133,0 0.194,-0.061 0.194,-0.204 V 2.225 c 0,-0.787 0.225,-1.49 0.929,-1.49 0.725,0 1.071,0.54 1.071,1.591 v 2.776 c 0,0.143 0.061,0.204 0.204,0.204 h 0.817 c 0.142,0 0.204,-0.061 0.204,-0.204 V 0.204 C 0.715,0.062 0.653,0 0.511,0 Z" /></g><g
           transform="translate(292.3011,69.0703)"
           id="g42"><path
             id="path44"
             style="fill:#323031;fill-opacity:1;fill-rule:nonzero;stroke:none"
             d="M 0,0 C -0.918,0 -1.408,0.521 -1.408,1.593 V 4.5 h -0.53 c -0.144,0 -0.205,0.062 -0.205,0.204 v 0.398 c 0,0.143 0.061,0.204 0.205,0.204 h 0.53 v 0.786 c 0,0.142 0.071,0.152 0.204,0.204 l 0.816,0.306 c 0.132,0.051 0.204,-0.061 0.204,-0.205 V 5.306 h 0.643 c 0.143,0 0.204,-0.061 0.204,-0.204 V 4.704 C 0.663,4.562 0.602,4.5 0.459,4.5 H -0.184 V 1.562 c 0,-0.5 0.255,-0.705 0.49,-0.705 h 0.071 c 0.144,0 0.204,-0.061 0.204,-0.204 V 0.204 C 0.581,0.062 0.521,0 0.377,0 Z" /></g><g
           transform="translate(294.8617,71.3867)"
           id="g46"><path
             id="path48"
             style="fill:#323031;fill-opacity:1;fill-rule:nonzero;stroke:none"
             d="m 0,0 c -0.765,0.235 -1.081,0.807 -1.081,1.479 0,0.939 0.663,1.643 1.908,1.643 0.867,0 1.551,-0.275 1.776,-0.5 0.04,-0.041 0.101,-0.112 0,-0.265 L 2.388,2.03 C 2.347,1.938 2.215,1.979 2.123,2.01 1.755,2.143 1.378,2.266 0.939,2.266 0.337,2.266 0.082,2 0.082,1.602 c 0,-0.235 0.112,-0.418 0.397,-0.5 L 1.674,0.755 C 2.562,0.5 2.837,0.01 2.837,-0.785 c 0,-1.103 -1,-1.653 -2.122,-1.653 -0.858,0 -1.643,0.234 -1.837,0.5 -0.071,0.101 -0.071,0.172 -0.01,0.265 l 0.214,0.326 c 0.051,0.072 0.174,0.051 0.266,0.021 0.397,-0.133 0.805,-0.255 1.305,-0.255 0.847,0 1.021,0.357 1.021,0.684 0,0.316 -0.204,0.448 -0.796,0.632 z" /></g><g
           transform="translate(300.4125,69.0703)"
           id="g50"><path
             id="path52"
             style="fill:#323031;fill-opacity:1;fill-rule:nonzero;stroke:none"
             d="M 0,0 C -0.918,0 -1.408,0.521 -1.408,1.593 V 4.5 h -0.53 c -0.143,0 -0.205,0.062 -0.205,0.204 v 0.398 c 0,0.143 0.062,0.204 0.205,0.204 h 0.53 v 0.786 c 0,0.142 0.072,0.152 0.205,0.204 l 0.815,0.306 c 0.133,0.051 0.204,-0.061 0.204,-0.205 V 5.306 h 0.643 c 0.144,0 0.204,-0.061 0.204,-0.204 V 4.704 C 0.663,4.562 0.603,4.5 0.459,4.5 H -0.184 V 1.562 c 0,-0.5 0.255,-0.705 0.491,-0.705 h 0.071 c 0.143,0 0.204,-0.061 0.204,-0.204 V 0.204 C 0.582,0.062 0.521,0 0.378,0 Z" /></g><g
           transform="translate(304.933,71.6016)"
           id="g54"><path
             id="path56"
             style="fill:#323031;fill-opacity:1;fill-rule:nonzero;stroke:none"
             d="m 0,0 h -1.071 c -0.541,0 -0.899,-0.286 -0.899,-0.775 0,-0.41 0.245,-1.021 0.97,-1.021 0.622,0 1,0.459 1,1.5 z m 0.51,-2.531 c -0.143,0 -0.173,0.061 -0.204,0.204 l -0.102,0.419 h -0.02 c -0.266,-0.49 -0.787,-0.745 -1.47,-0.745 -1.03,0 -1.918,0.591 -1.918,1.846 0,1.317 0.97,1.663 2.133,1.663 h 1.05 c -0.05,0.429 -0.265,1.195 -1.112,1.195 -0.326,0 -0.693,-0.113 -1.152,-0.256 -0.194,-0.061 -0.236,-0.021 -0.266,0.02 l -0.215,0.328 c -0.06,0.091 -0.071,0.172 0.011,0.264 0.204,0.225 0.949,0.5 1.765,0.5 1.765,0 2.215,-1.264 2.215,-2.723 v -2.511 c 0,-0.143 -0.062,-0.204 -0.205,-0.204 z" /></g><g
           transform="translate(310.4935,69.0703)"
           id="g58"><path
             id="path60"
             style="fill:#323031;fill-opacity:1;fill-rule:nonzero;stroke:none"
             d="m 0,0 c -0.133,0 -0.193,0.062 -0.193,0.204 v 2.878 c 0,0.785 -0.225,1.489 -0.929,1.489 -0.725,0 -1.071,-0.54 -1.071,-1.592 V 0.204 C -2.193,0.062 -2.255,0 -2.397,0 h -0.817 c -0.142,0 -0.204,0.062 -0.204,0.204 v 4.898 c 0,0.143 0.062,0.204 0.204,0.204 h 0.511 c 0.142,0 0.173,-0.061 0.203,-0.204 l 0.103,-0.418 h 0.02 c 0.245,0.479 0.836,0.745 1.356,0.745 1.133,0 2.052,-0.725 2.052,-2 V 0.204 C 1.031,0.062 0.97,0 0.837,0 Z" /></g><g
           transform="translate(316.2279,71.7031)"
           id="g62"><path
             id="path64"
             style="fill:#323031;fill-opacity:1;fill-rule:nonzero;stroke:none"
             d="m 0,0 c 0,1.388 -0.52,1.938 -1.418,1.938 -0.704,0 -1.143,-0.346 -1.143,-1.938 0,-1.54 0.409,-1.908 1.154,-1.908 C -0.5,-1.908 0,-1.357 0,0 m 0.511,-2.633 c -0.143,0 -0.174,0.062 -0.204,0.204 L 0.204,-2 H 0.185 c -0.419,-0.53 -1.032,-0.765 -1.807,-0.765 -1.163,0 -2.163,0.662 -2.163,2.765 0,2.122 1.011,2.796 2.193,2.796 0.868,0 1.317,-0.358 1.572,-0.745 H 0 v 2.663 c 0,0.142 0.062,0.204 0.204,0.204 h 0.817 c 0.143,0 0.204,-0.062 0.204,-0.204 v -7.143 c 0,-0.142 -0.061,-0.204 -0.204,-0.204 z" /></g><g
           transform="translate(318.6771,69.0703)"
           id="g66"><path
             id="path68"
             style="fill:#323031;fill-opacity:1;fill-rule:nonzero;stroke:none"
             d="m 0,0 c -0.143,0 -0.204,0.062 -0.204,0.204 v 4.898 c 0,0.143 0.061,0.204 0.204,0.204 h 0.816 c 0.143,0 0.205,-0.061 0.205,-0.204 V 0.204 C 1.021,0.062 0.959,0 0.816,0 Z m 0,6.326 c -0.143,0 -0.204,0.062 -0.204,0.204 v 0.817 c 0,0.142 0.061,0.204 0.204,0.204 h 0.816 c 0.143,0 0.205,-0.062 0.205,-0.204 V 6.53 C 1.021,6.388 0.959,6.326 0.816,6.326 Z" /></g><g
           transform="translate(324.1361,69.0703)"
           id="g70"><path
             id="path72"
             style="fill:#323031;fill-opacity:1;fill-rule:nonzero;stroke:none"
             d="m 0,0 c -0.133,0 -0.194,0.062 -0.194,0.204 v 2.878 c 0,0.785 -0.224,1.489 -0.928,1.489 -0.725,0 -1.071,-0.54 -1.071,-1.592 V 0.204 C -2.193,0.062 -2.255,0 -2.397,0 h -0.817 c -0.142,0 -0.204,0.062 -0.204,0.204 v 4.898 c 0,0.143 0.062,0.204 0.204,0.204 h 0.51 c 0.142,0 0.174,-0.061 0.204,-0.204 l 0.103,-0.418 h 0.02 c 0.244,0.479 0.836,0.745 1.356,0.745 1.133,0 2.051,-0.725 2.051,-2 V 0.204 C 1.03,0.062 0.969,0 0.837,0 Z" /></g><g
           transform="translate(329.8705,71.7441)"
           id="g74"><path
             id="path76"
             style="fill:#323031;fill-opacity:1;fill-rule:nonzero;stroke:none"
             d="M 0,0 C 0,1.357 -0.5,1.908 -1.408,1.908 -2.153,1.908 -2.562,1.54 -2.562,0 c 0,-1.592 0.44,-1.938 1.144,-1.938 C -0.521,-1.938 0,-1.388 0,0 m 0,-2.051 h -0.021 c -0.254,-0.387 -0.704,-0.745 -1.571,-0.745 -1.183,0 -2.193,0.673 -2.193,2.796 0,2.102 0.999,2.765 2.163,2.765 0.775,0 1.388,-0.235 1.806,-0.765 h 0.02 L 0.306,2.428 C 0.337,2.571 0.367,2.632 0.51,2.632 h 0.511 c 0.142,0 0.204,-0.061 0.204,-0.204 v -4.795 c 0,-1.612 -1,-2.643 -2.439,-2.643 -0.857,0 -1.898,0.306 -2.143,0.5 -0.072,0.062 -0.072,0.113 -0.01,0.265 l 0.163,0.429 c 0.031,0.082 0.163,0.05 0.266,0.02 0.265,-0.071 1.122,-0.245 1.713,-0.245 0.735,0 1.225,0.633 1.225,1.562 z" /></g><g
           transform="translate(339.0844,69.7139)"
           id="g78"><path
             id="path80"
             style="fill:#323031;fill-opacity:1;fill-rule:nonzero;stroke:none"
             d="m 0,0 c 0.062,-0.093 0.071,-0.174 -0.011,-0.266 -0.183,-0.213 -0.764,-0.5 -1.632,-0.5 -1.857,0 -2.367,1.306 -2.367,2.786 0,1.5 0.521,2.775 2.469,2.775 0.684,0 1.326,-0.316 1.53,-0.5 C 0.062,4.233 0.092,4.162 0,4.03 L -0.215,3.703 C -0.266,3.632 -0.388,3.652 -0.479,3.683 -0.684,3.754 -1.041,3.938 -1.49,3.938 -2.5,3.938 -2.785,3.01 -2.785,2.01 c 0,-1.031 0.296,-1.918 1.285,-1.918 0.398,0 0.704,0.142 1.021,0.255 0.112,0.04 0.213,0.05 0.264,-0.021 z" /></g><g
           transform="translate(341.472,69.0703)"
           id="g82"><path
             id="path84"
             style="fill:#323031;fill-opacity:1;fill-rule:nonzero;stroke:none"
             d="m 0,0 c -0.918,0 -1.408,0.521 -1.408,1.593 v 5.754 c 0,0.142 0.061,0.204 0.204,0.204 h 0.816 c 0.143,0 0.204,-0.062 0.204,-0.204 V 1.664 c 0,-0.571 0.154,-0.807 0.286,-0.807 h 0.072 c 0.142,0 0.204,-0.061 0.204,-0.204 V 0.204 C 0.378,0.062 0.316,0 0.174,0 Z" /></g><g
           transform="translate(345.9818,71.7236)"
           id="g86"><path
             id="path88"
             style="fill:#323031;fill-opacity:1;fill-rule:nonzero;stroke:none"
             d="M 0,0 C 0,1.01 -0.225,1.867 -1.245,1.867 -2.266,1.867 -2.489,1.01 -2.489,0 c 0,-1.021 0.223,-1.857 1.244,-1.857 C -0.225,-1.857 0,-1.021 0,0 m -3.714,-0.01 c 0,1.52 0.51,2.795 2.469,2.795 1.959,0 2.47,-1.275 2.47,-2.785 0,-1.521 -0.511,-2.775 -2.47,-2.775 -1.959,0 -2.469,1.245 -2.469,2.765" /></g><g
           transform="translate(351.8588,69.0703)"
           id="g90"><path
             id="path92"
             style="fill:#323031;fill-opacity:1;fill-rule:nonzero;stroke:none"
             d="m 0,0 c -0.143,0 -0.173,0.062 -0.203,0.204 l -0.103,0.419 h -0.02 c -0.245,-0.479 -0.837,-0.745 -1.358,-0.745 -1.131,0 -2.05,0.725 -2.05,2 v 3.224 c 0,0.143 0.061,0.204 0.194,0.204 h 0.837 c 0.133,0 0.193,-0.061 0.193,-0.204 V 2.225 c 0,-0.787 0.225,-1.49 0.929,-1.49 0.725,0 1.071,0.54 1.071,1.591 v 2.776 c 0,0.143 0.062,0.204 0.204,0.204 h 0.817 c 0.142,0 0.204,-0.061 0.204,-0.204 V 0.204 C 0.715,0.062 0.653,0 0.511,0 Z" /></g><g
           transform="translate(357.2777,71.7031)"
           id="g94"><path
             id="path96"
             style="fill:#323031;fill-opacity:1;fill-rule:nonzero;stroke:none"
             d="m 0,0 c 0,1.388 -0.521,1.938 -1.419,1.938 -0.703,0 -1.143,-0.346 -1.143,-1.938 0,-1.54 0.409,-1.908 1.154,-1.908 C -0.5,-1.908 0,-1.357 0,0 m 0.51,-2.633 c -0.143,0 -0.173,0.062 -0.204,0.204 L 0.204,-2 h -0.02 c -0.419,-0.53 -1.031,-0.765 -1.806,-0.765 -1.164,0 -2.163,0.662 -2.163,2.765 0,2.122 1.01,2.796 2.193,2.796 0.867,0 1.317,-0.358 1.571,-0.745 H 0 v 2.663 c 0,0.142 0.062,0.204 0.204,0.204 h 0.817 c 0.142,0 0.203,-0.062 0.203,-0.204 v -7.143 c 0,-0.142 -0.061,-0.204 -0.203,-0.204 z" /></g><g
           transform="translate(363.6644,71.3867)"
           id="g98"><path
             id="path100"
             style="fill:#323031;fill-opacity:1;fill-rule:nonzero;stroke:none"
             d="m 0,0 c -0.765,0.235 -1.081,0.807 -1.081,1.479 0,0.939 0.663,1.643 1.908,1.643 0.867,0 1.551,-0.275 1.776,-0.5 0.04,-0.041 0.101,-0.112 0,-0.265 L 2.388,2.03 C 2.348,1.938 2.215,1.979 2.123,2.01 1.756,2.143 1.378,2.266 0.939,2.266 0.337,2.266 0.082,2 0.082,1.602 c 0,-0.235 0.112,-0.418 0.397,-0.5 L 1.674,0.755 C 2.562,0.5 2.837,0.01 2.837,-0.785 c 0,-1.103 -1,-1.653 -2.122,-1.653 -0.858,0 -1.643,0.234 -1.837,0.5 -0.071,0.101 -0.071,0.172 -0.01,0.265 l 0.214,0.326 c 0.051,0.072 0.174,0.051 0.266,0.021 0.397,-0.133 0.805,-0.255 1.305,-0.255 0.847,0 1.021,0.357 1.021,0.684 0,0.316 -0.204,0.448 -0.796,0.632 z" /></g><g
           transform="translate(371.0316,71.7236)"
           id="g102"><path
             id="path104"
             style="fill:#323031;fill-opacity:1;fill-rule:nonzero;stroke:none"
             d="m 0,0 c 0,1.01 -0.225,1.867 -1.245,1.867 -1.02,0 -1.244,-0.857 -1.244,-1.867 0,-1.021 0.224,-1.857 1.244,-1.857 C -0.225,-1.857 0,-1.021 0,0 m -3.714,-0.01 c 0,1.52 0.51,2.795 2.469,2.795 1.96,0 2.47,-1.275 2.47,-2.785 0,-1.521 -0.51,-2.775 -2.47,-2.775 -1.959,0 -2.469,1.245 -2.469,2.765" /></g><g
           transform="translate(374.5834,69.0703)"
           id="g106"><path
             id="path108"
             style="fill:#323031;fill-opacity:1;fill-rule:nonzero;stroke:none"
             d="m 0,0 c -0.919,0 -1.408,0.521 -1.408,1.593 v 5.754 c 0,0.142 0.06,0.204 0.204,0.204 h 0.815 c 0.144,0 0.205,-0.062 0.205,-0.204 V 1.664 c 0,-0.571 0.153,-0.807 0.286,-0.807 h 0.071 c 0.142,0 0.204,-0.061 0.204,-0.204 V 0.204 C 0.377,0.062 0.315,0 0.173,0 Z" /></g><g
           transform="translate(379.2152,69.0703)"
           id="g110"><path
             id="path112"
             style="fill:#323031;fill-opacity:1;fill-rule:nonzero;stroke:none"
             d="m 0,0 c -0.143,0 -0.174,0.062 -0.204,0.204 l -0.102,0.419 h -0.02 c -0.245,-0.479 -0.837,-0.745 -1.358,-0.745 -1.132,0 -2.05,0.725 -2.05,2 v 3.224 c 0,0.143 0.061,0.204 0.194,0.204 h 0.836 c 0.133,0 0.194,-0.061 0.194,-0.204 V 2.225 c 0,-0.787 0.225,-1.49 0.929,-1.49 0.724,0 1.071,0.54 1.071,1.591 v 2.776 c 0,0.143 0.061,0.204 0.204,0.204 h 0.817 c 0.142,0 0.203,-0.061 0.203,-0.204 V 0.204 C 0.714,0.062 0.653,0 0.511,0 Z" /></g><g
           transform="translate(382.6849,69.0703)"
           id="g114"><path
             id="path116"
             style="fill:#323031;fill-opacity:1;fill-rule:nonzero;stroke:none"
             d="M 0,0 C -0.919,0 -1.408,0.521 -1.408,1.593 V 4.5 h -0.53 c -0.144,0 -0.206,0.062 -0.206,0.204 v 0.398 c 0,0.143 0.062,0.204 0.206,0.204 h 0.53 v 0.786 c 0,0.142 0.071,0.152 0.204,0.204 l 0.816,0.306 c 0.132,0.051 0.203,-0.061 0.203,-0.205 V 5.306 h 0.644 c 0.143,0 0.204,-0.061 0.204,-0.204 V 4.704 C 0.663,4.562 0.602,4.5 0.459,4.5 H -0.185 V 1.562 c 0,-0.5 0.256,-0.705 0.491,-0.705 h 0.071 c 0.143,0 0.204,-0.061 0.204,-0.204 V 0.204 C 0.581,0.062 0.52,0 0.377,0 Z" /></g><g
           transform="translate(384.3685,69.0703)"
           id="g118"><path
             id="path120"
             style="fill:#323031;fill-opacity:1;fill-rule:nonzero;stroke:none"
             d="m 0,0 c -0.144,0 -0.204,0.062 -0.204,0.204 v 4.898 c 0,0.143 0.06,0.204 0.204,0.204 H 0.816 C 0.959,5.306 1.02,5.245 1.02,5.102 V 0.204 C 1.02,0.062 0.959,0 0.816,0 Z m 0,6.326 c -0.144,0 -0.204,0.062 -0.204,0.204 v 0.817 c 0,0.142 0.06,0.204 0.204,0.204 H 0.816 C 0.959,7.551 1.02,7.489 1.02,7.347 V 6.53 C 1.02,6.388 0.959,6.326 0.816,6.326 Z" /></g><g
           transform="translate(390.0209,71.7236)"
           id="g122"><path
             id="path124"
             style="fill:#323031;fill-opacity:1;fill-rule:nonzero;stroke:none"
             d="M 0,0 C 0,1.01 -0.225,1.867 -1.245,1.867 -2.266,1.867 -2.489,1.01 -2.489,0 c 0,-1.021 0.223,-1.857 1.244,-1.857 C -0.225,-1.857 0,-1.021 0,0 m -3.714,-0.01 c 0,1.52 0.51,2.795 2.469,2.795 1.959,0 2.47,-1.275 2.47,-2.785 0,-1.521 -0.511,-2.775 -2.47,-2.775 -1.959,0 -2.469,1.245 -2.469,2.765" /></g><g
           transform="translate(395.5814,69.0703)"
           id="g126"><path
             id="path128"
             style="fill:#323031;fill-opacity:1;fill-rule:nonzero;stroke:none"
             d="m 0,0 c -0.132,0 -0.193,0.062 -0.193,0.204 v 2.878 c 0,0.785 -0.225,1.489 -0.929,1.489 -0.725,0 -1.071,-0.54 -1.071,-1.592 V 0.204 C -2.193,0.062 -2.255,0 -2.397,0 h -0.817 c -0.142,0 -0.204,0.062 -0.204,0.204 v 4.898 c 0,0.143 0.062,0.204 0.204,0.204 h 0.511 c 0.142,0 0.173,-0.061 0.204,-0.204 l 0.102,-0.418 h 0.02 c 0.245,0.479 0.837,0.745 1.357,0.745 1.132,0 2.051,-0.725 2.051,-2 V 0.204 C 1.031,0.062 0.97,0 0.837,0 Z" /></g><g
           transform="translate(398.7142,71.3867)"
           id="g130"><path
             id="path132"
             style="fill:#323031;fill-opacity:1;fill-rule:nonzero;stroke:none"
             d="m 0,0 c -0.765,0.235 -1.081,0.807 -1.081,1.479 0,0.939 0.663,1.643 1.908,1.643 0.867,0 1.551,-0.275 1.775,-0.5 0.041,-0.041 0.102,-0.112 0,-0.265 L 2.388,2.03 C 2.347,1.938 2.214,1.979 2.122,2.01 1.755,2.143 1.378,2.266 0.938,2.266 0.337,2.266 0.082,2 0.082,1.602 c 0,-0.235 0.112,-0.418 0.397,-0.5 L 1.674,0.755 C 2.562,0.5 2.837,0.01 2.837,-0.785 c 0,-1.103 -1,-1.653 -2.122,-1.653 -0.858,0 -1.644,0.234 -1.837,0.5 -0.071,0.101 -0.071,0.172 -0.01,0.265 l 0.214,0.326 c 0.051,0.072 0.173,0.051 0.266,0.021 0.397,-0.133 0.805,-0.255 1.305,-0.255 0.847,0 1.021,0.357 1.021,0.684 0,0.316 -0.204,0.448 -0.796,0.632 z" /></g><g
           transform="translate(284.7748,85.9795)"
           id="g134"><path
             id="path136"
             style="fill:#be1e2d;fill-opacity:1;fill-rule:nonzero;stroke:none"
             d="M 0,0 C -0.557,0.099 -0.557,0.257 -0.557,0.582 V 10.92 h 25.635 l 1.442,2.318 -1.384,2.226 H -0.557 v 10.338 c 0,0.325 0,0.483 0.557,0.581 h 18.346 l -2.964,4.765 H 0.091 c -1.524,0 -2.839,-0.502 -3.91,-1.491 -1.089,-1.006 -1.664,-2.345 -1.664,-3.876 V 13.191 0.603 c 0,-1.531 0.575,-2.872 1.664,-3.877 1.071,-0.989 2.386,-1.491 3.91,-1.491 H 15.323 L 18.287,0 Z" /></g><g
           transform="translate(215.9232,218.1611)"
           id="g138"><path
             id="path140"
             style="fill:#ef4136;fill-opacity:1;fill-rule:nonzero;stroke:none"
             d="m 0,0 -4.754,13.396 h -0.151 c 0.095,-3.314 0.24,-6.626 0.432,-9.939 0.193,-3.312 0.288,-6.626 0.288,-9.939 v -27.3 h -3.601 v 50.42 h 5.042 l 13.11,-33.782 4.753,-13.399 h 0.152 c -0.101,3.314 -0.245,6.628 -0.432,9.94 -0.188,3.314 -0.284,6.627 -0.289,9.941 v 27.298 h 3.603 v -50.42 H 13.11 Z" /></g><g
           transform="translate(255.0336,184.3789)"
           id="g142"><path
             id="path144"
             style="fill:#ef4136;fill-opacity:1;fill-rule:nonzero;stroke:none"
             d="m 0,0 c -1.679,-0.033 -3.35,0.235 -4.934,0.792 -1.314,0.465 -2.516,1.201 -3.529,2.161 -0.931,0.902 -1.656,1.996 -2.125,3.204 -0.486,1.253 -0.73,2.587 -0.721,3.931 v 16.566 c -0.009,1.294 0.236,2.578 0.721,3.779 0.477,1.173 1.202,2.231 2.125,3.098 1.017,0.937 2.219,1.649 3.529,2.089 1.59,0.531 3.258,0.787 4.934,0.756 1.603,0.027 3.197,-0.217 4.718,-0.721 1.265,-0.422 2.439,-1.082 3.457,-1.945 0.916,-0.788 1.642,-1.773 2.125,-2.881 0.476,-1.09 0.721,-2.267 0.72,-3.456 V 17.001 H -6.267 l -1.44,3.096 H 7.778 v 7.276 c 0.005,1.621 -0.723,3.157 -1.981,4.179 -1.659,1.26 -3.72,1.874 -5.798,1.727 -2.192,0.168 -4.363,-0.53 -6.046,-1.945 -1.307,-1.205 -2.041,-2.909 -2.018,-4.687 V 10.081 c -0.042,-1.863 0.688,-3.662 2.018,-4.97 1.661,-1.458 3.841,-2.185 6.046,-2.016 h 9.939 v -3.097 z" /></g><g
           transform="translate(297.1693,220.3936)"
           id="g146"><path
             id="path148"
             style="fill:#ef4136;fill-opacity:1;fill-rule:nonzero;stroke:none"
             d="m 0,0 v -26.291 c 0.012,-1.331 -0.233,-2.651 -0.721,-3.89 -0.481,-1.202 -1.205,-2.293 -2.125,-3.204 -0.985,-0.969 -2.163,-1.717 -3.457,-2.198 -3.106,-1.055 -6.474,-1.055 -9.58,0 -1.295,0.481 -2.472,1.23 -3.457,2.198 -0.921,0.911 -1.644,2.002 -2.125,3.204 -0.487,1.239 -0.732,2.559 -0.72,3.89 V 0 h 3.241 v -26.291 c -0.031,-1.844 0.683,-3.623 1.982,-4.933 3.435,-2.739 8.307,-2.739 11.741,0 1.297,1.311 2.012,3.089 1.982,4.933 V 0 Z" /></g><g
           transform="translate(307.2523,209.5889)"
           id="g150"><path
             id="path152"
             style="fill:#ef4136;fill-opacity:1;fill-rule:nonzero;stroke:none"
             d="m 0,0 c -0.011,1.425 0.233,2.84 0.72,4.179 0.958,2.651 3.021,4.755 5.655,5.761 1.572,0.605 3.248,0.899 4.934,0.865 h 1.799 V 7.706 H 11.309 C 9.064,7.876 6.857,7.062 5.262,5.474 3.913,3.975 3.191,2.015 3.246,-0.001 V -25.21 H 0.004 Z" /></g><g
           transform="translate(327.5648,220.3936)"
           id="g154"><path
             id="path156"
             style="fill:#ef4136;fill-opacity:1;fill-rule:nonzero;stroke:none"
             d="m 0,0 h 9.22 c 1.538,0.025 3.065,-0.243 4.502,-0.793 2.474,-0.938 4.427,-2.892 5.366,-5.366 0.485,-1.253 0.73,-2.586 0.721,-3.93 v -25.926 h -1.663 l -1.297,4.394 c -0.813,-1.437 -1.995,-2.63 -3.422,-3.458 -1.711,-0.924 -3.638,-1.371 -5.581,-1.296 -1.698,-0.048 -3.391,0.195 -5.006,0.72 -1.199,0.401 -2.287,1.08 -3.174,1.981 -0.808,0.866 -1.389,1.917 -1.691,3.061 -0.349,1.292 -0.519,2.625 -0.505,3.962 -0.042,1.522 0.254,3.035 0.864,4.43 0.549,1.189 1.347,2.244 2.34,3.097 1.023,0.863 2.185,1.546 3.437,2.019 1.35,0.517 2.75,0.891 4.178,1.116 l 8.525,1.467 1.297,-2.955 -9.319,-1.68 C 7.754,-19.345 6.73,-19.61 5.731,-19.95 4.791,-20.262 3.914,-20.737 3.14,-21.354 2.399,-21.95 1.797,-22.699 1.375,-23.551 c -0.461,-0.993 -0.684,-2.08 -0.649,-3.175 -0.01,-0.87 0.076,-1.739 0.253,-2.591 0.16,-0.755 0.52,-1.452 1.043,-2.018 0.626,-0.636 1.409,-1.096 2.268,-1.334 1.254,-0.346 2.552,-0.504 3.853,-0.467 4.136,-0.494 7.891,2.459 8.385,6.596 0.053,0.44 0.067,0.885 0.041,1.328 v 15.129 c 0.115,3.755 -2.837,6.891 -6.591,7.005 -0.252,0.008 -0.505,0.002 -0.756,-0.019 h -9.22 z" /></g><g
           transform="translate(360.5541,234.7988)"
           id="g158"><path
             id="path160"
             style="fill:#00a9b8;fill-opacity:1;fill-rule:nonzero;stroke:none"
             d="m 0,0 v -47.108 h 18.727 v -3.314 h -22.33 l 0,50.422 z" /></g><g
           transform="translate(396.4164,184.3789)"
           id="g162"><path
             id="path164"
             style="fill:#00a9b8;fill-opacity:1;fill-rule:nonzero;stroke:none"
             d="m 0,0 c -1.679,-0.033 -3.35,0.235 -4.934,0.792 -1.314,0.466 -2.516,1.202 -3.529,2.161 -0.932,0.902 -1.656,1.996 -2.127,3.204 -0.485,1.253 -0.729,2.587 -0.72,3.931 v 16.566 c -0.008,1.294 0.236,2.578 0.72,3.779 0.478,1.173 1.203,2.23 2.127,3.098 1.017,0.937 2.219,1.649 3.529,2.089 1.59,0.531 3.258,0.787 4.934,0.756 1.602,0.027 3.197,-0.217 4.718,-0.721 1.265,-0.422 2.438,-1.082 3.455,-1.945 0.917,-0.788 1.643,-1.773 2.127,-2.881 0.476,-1.09 0.721,-2.267 0.72,-3.456 V 17.001 H -9.268 l 0.063,3.096 H 7.786 v 7.276 C 7.791,28.994 7.062,30.53 5.805,31.552 4.144,32.813 2.08,33.428 0,33.279 c -2.192,0.168 -4.363,-0.53 -6.046,-1.945 -1.307,-1.205 -2.04,-2.909 -2.017,-4.687 V 10.081 C -8.106,8.217 -7.376,6.419 -6.046,5.111 -4.384,3.653 -2.204,2.926 0,3.095 h 9.939 v -3.097 z" /></g><g
           transform="translate(435.7484,220.3936)"
           id="g166"><path
             id="path168"
             style="fill:#00a9b8;fill-opacity:1;fill-rule:nonzero;stroke:none"
             d="m 0,0 h 3.242 v -43.938 c 0.01,-1.344 -0.235,-2.677 -0.721,-3.93 -0.47,-1.209 -1.195,-2.302 -2.125,-3.205 -1.013,-0.958 -2.215,-1.695 -3.53,-2.161 -1.585,-0.555 -3.256,-0.823 -4.935,-0.791 h -9.934 v 3.095 h 9.939 c 2.205,-0.168 4.383,0.559 6.045,2.017 1.33,1.308 2.059,3.106 2.017,4.97 v 7.928 h -8.499 c -1.692,-0.036 -3.373,0.284 -4.936,0.936 -2.682,1.125 -4.746,3.358 -5.654,6.123 -0.487,1.438 -0.73,2.948 -0.72,4.467 v 12.966 c -0.01,1.517 0.233,3.027 0.72,4.464 0.908,2.764 2.972,4.998 5.654,6.123 1.562,0.654 3.244,0.973 4.936,0.938 h 9.71 L 1.146,-3.097 h -9.644 c -2.294,0.166 -4.533,-0.755 -6.046,-2.486 -1.354,-1.681 -2.069,-3.785 -2.018,-5.942 v -12.966 c -0.05,-2.157 0.665,-4.263 2.018,-5.944 1.514,-1.73 3.752,-2.65 6.046,-2.485 H 0 Z" /></g><path
           id="path170"
           style="fill:#00a9b8;fill-opacity:1;fill-rule:nonzero;stroke:none"
           d="m 449.004,184.385 h 3.242 v 36.008 h -3.242 z m 0,48.973 h 3.242 v -5.043 h -3.242 z" /><g
           transform="translate(481.3461,211.5166)"
           id="g172"><path
             id="path174"
             style="fill:#00a9b8;fill-opacity:1;fill-rule:nonzero;stroke:none"
             d="m 0,0 3.236,-0.056 v -17.351 c 0.012,-1.334 -0.246,-2.656 -0.756,-3.889 -0.507,-1.206 -1.255,-2.297 -2.197,-3.206 -1.031,-0.979 -2.259,-1.728 -3.6,-2.198 -3.23,-1.055 -6.711,-1.055 -9.941,0 -1.343,0.47 -2.57,1.219 -3.601,2.198 -0.942,0.908 -1.689,1.999 -2.195,3.206 -0.51,1.233 -0.767,2.555 -0.756,3.889 v 16.566 c -0.004,1.322 0.252,2.631 0.756,3.854 0.5,1.22 1.247,2.324 2.195,3.242 1.031,0.978 2.259,1.727 3.601,2.196 3.23,1.058 6.711,1.058 9.941,0 1.341,-0.47 2.569,-1.218 3.6,-2.196 C 1.23,5.336 1.979,4.232 2.48,3.013 2.983,1.79 3.24,0.481 3.236,-0.841 h -3.242 c 0.024,1.865 -0.733,3.654 -2.089,4.936 -3.677,2.739 -8.717,2.739 -12.394,0 -1.356,-1.282 -2.113,-3.071 -2.089,-4.936 v -16.566 c -0.024,-1.864 0.733,-3.654 2.089,-4.934 3.676,-2.741 8.718,-2.741 12.394,0 1.356,1.28 2.114,3.07 2.089,4.934 z" /></g><g
           transform="translate(493.2709,218.6475)"
           id="g176"><path
             id="path178"
             style="fill:#00a9b8;fill-opacity:1;fill-rule:nonzero;stroke:none"
             d="M 0,0 3.242,-0.063 V -34.269 H 0 Z m 0,1.746 h 11.958 c 1.499,0.024 2.99,-0.232 4.396,-0.756 1.211,-0.454 2.325,-1.138 3.276,-2.015 0.879,-0.829 1.566,-1.837 2.018,-2.955 0.461,-1.158 0.694,-2.392 0.685,-3.637 v -26.652 h -3.242 v 26.65 c 0.008,0.823 -0.127,1.641 -0.398,2.418 -0.269,0.753 -0.714,1.431 -1.296,1.98 -0.682,0.625 -1.494,1.093 -2.376,1.369 -1.178,0.364 -2.406,0.534 -3.637,0.504 H 0.002 Z" /></g><g
           transform="translate(187.0258,228.3535)"
           id="g180"><path
             id="path182"
             style="fill:#00a9b8;fill-opacity:1;fill-rule:nonzero;stroke:none"
             d="m 0,0 v -12.826 c 0.204,0.025 0.404,0.062 0.614,0.062 0.211,0 0.411,-0.037 0.615,-0.062 V 0 C 1.025,-0.024 0.825,-0.062 0.614,-0.062 0.404,-0.062 0.204,-0.025 0,0" /></g><g
           transform="translate(187.0258,228.3535)"
           id="g184"><path
             id="path186"
             style="fill:none;stroke:#00a9b8;stroke-width:0.2;stroke-linecap:butt;stroke-linejoin:miter;stroke-miterlimit:10;stroke-dasharray:none;stroke-opacity:1"
             d="m 0,0 v -12.826 c 0.204,0.025 0.404,0.062 0.614,0.062 0.211,0 0.411,-0.037 0.615,-0.062 V 0 C 1.025,-0.024 0.825,-0.062 0.614,-0.062 0.404,-0.062 0.204,-0.025 0,0 Z" /></g><g
           transform="translate(132.0971,184.834)"
           id="g188"><path
             id="path190"
             style="fill:#00a9b8;fill-opacity:1;fill-rule:nonzero;stroke:none"
             d="m 0,0 c -0.251,-0.409 -0.553,-0.778 -0.904,-1.102 l 22.006,-16.616 c 0.229,0.421 0.499,0.817 0.832,1.156 z" /></g><g
           transform="translate(132.0971,184.834)"
           id="g192"><path
             id="path194"
             style="fill:none;stroke:#00a9b8;stroke-width:0.2;stroke-linecap:butt;stroke-linejoin:miter;stroke-miterlimit:10;stroke-dasharray:none;stroke-opacity:1"
             d="m 0,0 c -0.251,-0.409 -0.553,-0.778 -0.904,-1.102 l 22.006,-16.616 c 0.229,0.421 0.499,0.817 0.832,1.156 z" /></g><g
           transform="translate(132.7963,232.7598)"
           id="g196"><path
             id="path198"
             style="fill:#00a9b8;fill-opacity:1;fill-rule:nonzero;stroke:none"
             d="m 0,0 h 19.831 c -0.033,0.235 -0.072,0.47 -0.072,0.714 0,0.244 0.039,0.478 0.072,0.714 H 0 C 0.033,1.192 0.072,0.958 0.072,0.714 0.072,0.47 0.033,0.235 0,0" /></g><g
           transform="translate(132.7963,232.7598)"
           id="g200"><path
             id="path202"
             style="fill:none;stroke:#00a9b8;stroke-width:0.2;stroke-linecap:butt;stroke-linejoin:miter;stroke-miterlimit:10;stroke-dasharray:none;stroke-opacity:1"
             d="m 0,0 h 19.831 c -0.033,0.235 -0.072,0.47 -0.072,0.714 0,0.244 0.039,0.478 0.072,0.714 H 0 C 0.033,1.192 0.072,0.958 0.072,0.714 0.072,0.47 0.033,0.235 0,0 Z" /></g><g
           transform="translate(128.3422,215.5684)"
           id="g204"><path
             id="path206"
             style="fill:#00a9b8;fill-opacity:1;fill-rule:nonzero;stroke:none"
             d="m 0,0 v 12.826 c -0.204,-0.025 -0.405,-0.063 -0.616,-0.063 -0.209,0 -0.409,0.037 -0.613,0.061 V 10e-4 c 0.204,0.024 0.404,0.061 0.613,0.061 C -0.405,0.062 -0.204,0.025 0,0" /></g><g
           transform="translate(128.3422,215.5684)"
           id="g208"><path
             id="path210"
             style="fill:none;stroke:#00a9b8;stroke-width:0.2;stroke-linecap:butt;stroke-linejoin:miter;stroke-miterlimit:10;stroke-dasharray:none;stroke-opacity:1"
             d="m 0,0 v 12.826 c -0.204,-0.025 -0.405,-0.063 -0.616,-0.063 -0.209,0 -0.409,0.037 -0.613,0.061 V 10e-4 c 0.204,0.024 0.404,0.061 0.613,0.061 C -0.405,0.062 -0.204,0.025 0,0 Z" /></g><g
           transform="translate(162.7738,232.8193)"
           id="g212"><path
             id="path214"
             style="fill:#00a9b8;fill-opacity:1;fill-rule:nonzero;stroke:none"
             d="m 0,0 h 19.786 c -0.024,0.204 -0.062,0.404 -0.062,0.614 0,0.211 0.038,0.41 0.062,0.615 H 0.009 C 0.03,1.038 0.066,0.851 0.066,0.654 0.066,0.431 0.028,0.217 0,0" /></g><g
           transform="translate(162.7738,232.8193)"
           id="g216"><path
             id="path218"
             style="fill:none;stroke:#00a9b8;stroke-width:0.2;stroke-linecap:butt;stroke-linejoin:miter;stroke-miterlimit:10;stroke-dasharray:none;stroke-opacity:1"
             d="m 0,0 h 19.786 c -0.024,0.204 -0.062,0.404 -0.062,0.614 0,0.211 0.038,0.41 0.062,0.615 H 0.009 C 0.03,1.038 0.066,0.851 0.066,0.654 0.066,0.431 0.028,0.217 0,0 Z" /></g><g
           transform="translate(128.3422,192.582)"
           id="g220"><path
             id="path222"
             style="fill:#00a9b8;fill-opacity:1;fill-rule:nonzero;stroke:none"
             d="m 0,0 v 12.827 c -0.204,-0.025 -0.405,-0.063 -0.616,-0.063 -0.209,0 -0.409,0.037 -0.613,0.061 V 10e-4 c 0.204,0.024 0.404,0.061 0.613,0.061 C -0.405,0.062 -0.204,0.025 0,0" /></g><g
           transform="translate(128.3422,192.582)"
           id="g224"><path
             id="path226"
             style="fill:none;stroke:#00a9b8;stroke-width:0.2;stroke-linecap:butt;stroke-linejoin:miter;stroke-miterlimit:10;stroke-dasharray:none;stroke-opacity:1"
             d="m 0,0 v 12.827 c -0.204,-0.025 -0.405,-0.063 -0.616,-0.063 -0.209,0 -0.409,0.037 -0.613,0.061 V 10e-4 c 0.204,0.024 0.404,0.061 0.613,0.061 C -0.405,0.062 -0.204,0.025 0,0 Z" /></g><g
           transform="translate(187.64,205.3047)"
           id="g228"><path
             id="path230"
             style="fill:#00a9b8;fill-opacity:1;fill-rule:nonzero;stroke:none"
             d="m 0,0 c -0.21,0 -0.41,0.037 -0.614,0.062 v -12.829 c 0.204,0.026 0.404,0.063 0.614,0.063 0.211,0 0.411,-0.037 0.615,-0.063 V 0.062 C 0.411,0.038 0.211,0 0,0" /></g><g
           transform="translate(187.64,205.3047)"
           id="g232"><path
             id="path234"
             style="fill:none;stroke:#00a9b8;stroke-width:0.2;stroke-linecap:butt;stroke-linejoin:miter;stroke-miterlimit:10;stroke-dasharray:none;stroke-opacity:1"
             d="m 0,0 c -0.21,0 -0.41,0.037 -0.614,0.062 v -12.829 c 0.204,0.026 0.404,0.063 0.614,0.063 0.211,0 0.411,-0.037 0.615,-0.063 V 0.062 C 0.411,0.038 0.211,0 0,0 Z" /></g><g
           transform="translate(168.5717,202.9395)"
           id="g236"><path
             id="path238"
             style="fill:#00a9b8;fill-opacity:1;fill-rule:nonzero;stroke:none"
             d="M 0,0 4.031,6.287 6.274,2.825 3.779,-2.884 Z M 0.002,15.13 2.986,17.431 7.142,13.78 4.025,8.92 Z M -7.403,26.561 1.9,18.386 -0.772,16.324 Z M 8.226,12.828 9.975,11.291 8.633,8.222 H 5.272 Z m 7.596,11.846 -5.248,-12.01 -1.569,1.379 z M 13.468,8.222 h -3.224 l 0.895,2.047 z M 6.959,4.392 5.403,6.793 H 8.009 Z M 6.215,-0.997 7.236,1.341 7.895,0.324 Z m 7.783,-13.769 h -13.8 l 4.204,9.62 10.22,-7.799 c 0.238,0.415 0.516,0.802 0.856,1.134 L 4.987,-3.806 5.008,-3.76 8.673,-0.876 15.66,-11.66 c 0.356,0.317 0.751,0.585 1.184,0.795 L 9.799,0.009 15.148,4.219 C 14.842,4.584 14.573,4.982 14.376,5.424 L 9.021,1.21 7.921,2.907 9.619,6.793 h 4.379 c -0.033,0.235 -0.072,0.47 -0.072,0.715 0,0.667 0.137,1.301 0.37,1.887 l -2.558,2.247 6.069,13.885 c -0.883,0.225 -1.677,0.666 -2.311,1.282 l -7.575,-11.813 -3.782,3.323 11.21,8.644 c -0.327,0.344 -0.595,0.737 -0.817,1.161 L 3.053,19.273 -6.575,27.732 c -0.517,-0.789 -1.247,-1.418 -2.106,-1.828 l 6.775,-10.454 -5.43,-4.186 c 0.344,-0.327 0.632,-0.705 0.875,-1.118 l 5.329,4.11 3.909,-6.034 h -8.576 c 0.029,-0.223 0.068,-0.443 0.068,-0.673 0,-0.259 -0.04,-0.507 -0.078,-0.756 h 8.47 l -3.8,-5.925 -5.333,4.07 C -6.717,4.527 -7.008,4.151 -7.354,3.824 l 5.447,-4.155 -6.732,-10.496 c 0.433,-0.211 0.829,-0.48 1.184,-0.798 L -0.77,-1.2 2.646,-3.806 -7.375,-11.69 c 0.349,-0.326 0.646,-0.7 0.893,-1.11 l 9.035,7.109 -3.966,-9.075 h -4.386 c 0.029,-0.222 0.068,-0.441 0.068,-0.672 0,-0.258 -0.04,-0.506 -0.078,-0.755 h 3.772 l -7.485,-17.13 c 0.483,-0.132 0.939,-0.326 1.354,-0.585 l 7.742,17.715 h 14.424 c -0.033,0.234 -0.072,0.467 -0.072,0.712 0,0.245 0.039,0.479 0.072,0.715" /></g><g
           transform="translate(168.5717,202.9395)"
           id="g240"><path
             id="path242"
             style="fill:none;stroke:#00a9b8;stroke-width:0.2;stroke-linecap:butt;stroke-linejoin:miter;stroke-miterlimit:10;stroke-dasharray:none;stroke-opacity:1"
             d="M 0,0 4.031,6.287 6.274,2.825 3.779,-2.884 Z M 0.002,15.13 2.986,17.431 7.142,13.78 4.025,8.92 Z M -7.403,26.561 1.9,18.386 -0.772,16.324 Z M 8.226,12.828 9.975,11.291 8.633,8.222 H 5.272 Z m 7.596,11.846 -5.248,-12.01 -1.569,1.379 z M 13.468,8.222 h -3.224 l 0.895,2.047 z M 6.959,4.392 5.403,6.793 H 8.009 Z M 6.215,-0.997 7.236,1.341 7.895,0.324 Z m 7.783,-13.769 h -13.8 l 4.204,9.62 10.22,-7.799 c 0.238,0.415 0.516,0.802 0.856,1.134 L 4.987,-3.806 5.008,-3.76 8.673,-0.876 15.66,-11.66 c 0.356,0.317 0.751,0.585 1.184,0.795 L 9.799,0.009 15.148,4.219 C 14.842,4.584 14.573,4.982 14.376,5.424 L 9.021,1.21 7.921,2.907 9.619,6.793 h 4.379 c -0.033,0.235 -0.072,0.47 -0.072,0.715 0,0.667 0.137,1.301 0.37,1.887 l -2.558,2.247 6.069,13.885 c -0.883,0.225 -1.677,0.666 -2.311,1.282 l -7.575,-11.813 -3.782,3.323 11.21,8.644 c -0.327,0.344 -0.595,0.737 -0.817,1.161 L 3.053,19.273 -6.575,27.732 c -0.517,-0.789 -1.247,-1.418 -2.106,-1.828 l 6.775,-10.454 -5.43,-4.186 c 0.344,-0.327 0.632,-0.705 0.875,-1.118 l 5.329,4.11 3.909,-6.034 h -8.576 c 0.029,-0.223 0.068,-0.443 0.068,-0.673 0,-0.259 -0.04,-0.507 -0.078,-0.756 h 8.47 l -3.8,-5.925 -5.333,4.07 C -6.717,4.527 -7.008,4.151 -7.354,3.824 l 5.447,-4.155 -6.732,-10.496 c 0.433,-0.211 0.829,-0.48 1.184,-0.798 L -0.77,-1.2 2.646,-3.806 -7.375,-11.69 c 0.349,-0.326 0.646,-0.7 0.893,-1.11 l 9.035,7.109 -3.966,-9.075 h -4.386 c 0.029,-0.222 0.068,-0.441 0.068,-0.672 0,-0.258 -0.04,-0.506 -0.078,-0.755 h 3.772 l -7.485,-17.13 c 0.483,-0.132 0.939,-0.326 1.354,-0.585 l 7.742,17.715 h 14.424 c -0.033,0.234 -0.072,0.467 -0.072,0.712 0,0.245 0.039,0.479 0.072,0.715 z" /></g><g
           transform="translate(183.266,184.79)"
           id="g244"><path
             id="path246"
             style="fill:#00a9b8;fill-opacity:1;fill-rule:nonzero;stroke:none"
             d="m 0,0 -21.923,-16.491 c 0.335,-0.337 0.605,-0.732 0.837,-1.152 L 0.903,-1.102 C 0.552,-0.778 0.25,-0.409 0,0" /></g><g
           transform="translate(183.266,184.79)"
           id="g248"><path
             id="path250"
             style="fill:none;stroke:#00a9b8;stroke-width:0.2;stroke-linecap:butt;stroke-linejoin:miter;stroke-miterlimit:10;stroke-dasharray:none;stroke-opacity:1"
             d="m 0,0 -21.923,-16.491 c 0.335,-0.337 0.605,-0.732 0.837,-1.152 L 0.903,-1.102 C 0.552,-0.778 0.25,-0.409 0,0 Z" /></g><g
           transform="translate(140.6312,206.0664)"
           id="g252"><path
             id="path254"
             style="fill:#00a9b8;fill-opacity:1;fill-rule:nonzero;stroke:none"
             d="M 0,0 2.03,3.151 6.082,-3.155 2.557,-5.852 Z m -1.775,-2.756 0.815,1.266 1.277,-2.923 z m -0.167,0.132 0.882,1.361 0.004,-0.008 -0.877,-1.361 z M 0.124,0.561 -0.097,0.22 V 0.221 Z M -0.687,1.57 -1.62,3.706 H 0.689 Z M -2.244,5.135 -3.645,8.338 -2.146,9.65 0.756,5.135 Z m -5.058,0 2.492,2.182 0.955,-2.182 z m -1.323,14.6 5.699,-8.87 L -4.244,9.71 Z M 3.103,14.247 6.022,11.985 2.03,5.788 -1.062,10.601 Z M 13.146,23.045 6.794,13.183 4.19,15.2 Z m 1.386,-59.987 c 0.426,0.243 0.881,0.436 1.371,0.55 L 8.426,-19.28 h 3.57 c -0.033,0.236 -0.072,0.47 -0.072,0.716 0,0.244 0.039,0.477 0.072,0.711 H 7.802 l -3.807,8.71 8.648,-6.845 c 0.242,0.415 0.528,0.797 0.872,1.127 L 3.5,-6.933 l 3.358,2.569 6.714,-10.449 c 0.349,0.325 0.745,0.593 1.174,0.812 L 7.995,-3.494 13.51,0.723 C 13.164,1.055 12.878,1.44 12.636,1.857 L 7.219,-2.286 3.368,3.706 h 8.628 c -0.033,0.236 -0.072,0.471 -0.072,0.716 0,0.244 0.039,0.477 0.072,0.713 H 3.308 l 3.847,5.972 5.433,-4.209 c 0.232,0.418 0.501,0.813 0.836,1.149 l -5.497,4.259 6.797,10.55 c -0.794,0.411 -1.474,1.006 -1.96,1.75 L 3.04,16.091 -8.412,24.962 c -0.23,-0.419 -0.498,-0.813 -0.831,-1.15 L 1.953,15.138 -1.842,11.814 -9.438,23.639 c -0.568,-0.523 -1.25,-0.909 -2.007,-1.136 L -5.409,8.69 -8.131,6.306 c 0.232,-0.585 0.368,-1.218 0.368,-1.884 0,-0.245 -0.039,-0.48 -0.073,-0.716 h 4.606 l 1.582,-3.621 -1.261,-1.943 -5.305,4.2 C -8.412,1.899 -8.68,1.501 -8.988,1.136 l 5.3,-4.196 -7.045,-10.86 c 0.375,-0.176 0.718,-0.4 1.037,-0.658 l 6.974,10.753 0.014,-0.011 -6.944,-10.778 c 0.051,-0.043 0.105,-0.084 0.155,-0.128 l 6.946,10.782 3.725,-2.949 -10.465,-8.003 c 0.34,-0.337 0.615,-0.732 0.852,-1.151 L 1.939,-8.126 6.19,-17.853 H -7.834 c 0.032,-0.234 0.071,-0.467 0.071,-0.711 0,-0.246 -0.039,-0.48 -0.073,-0.716 h 14.65 z" /></g><g
           transform="translate(140.6312,206.0664)"
           id="g256"><path
             id="path258"
             style="fill:none;stroke:#00a9b8;stroke-width:0.2;stroke-linecap:butt;stroke-linejoin:miter;stroke-miterlimit:10;stroke-dasharray:none;stroke-opacity:1"
             d="M 0,0 2.03,3.151 6.082,-3.155 2.557,-5.852 Z m -1.775,-2.756 0.815,1.266 1.277,-2.923 z m -0.167,0.132 0.882,1.361 0.004,-0.008 -0.877,-1.361 z M 0.124,0.561 -0.097,0.22 V 0.221 Z M -0.687,1.57 -1.62,3.706 H 0.689 Z M -2.244,5.135 -3.645,8.338 -2.146,9.65 0.756,5.135 Z m -5.058,0 2.492,2.182 0.955,-2.182 z m -1.323,14.6 5.699,-8.87 L -4.244,9.71 Z M 3.103,14.247 6.022,11.985 2.03,5.788 -1.062,10.601 Z M 13.146,23.045 6.794,13.183 4.19,15.2 Z m 1.386,-59.987 c 0.426,0.243 0.881,0.436 1.371,0.55 L 8.426,-19.28 h 3.57 c -0.033,0.236 -0.072,0.47 -0.072,0.716 0,0.244 0.039,0.477 0.072,0.711 H 7.802 l -3.807,8.71 8.648,-6.845 c 0.242,0.415 0.528,0.797 0.872,1.127 L 3.5,-6.933 l 3.358,2.569 6.714,-10.449 c 0.349,0.325 0.745,0.593 1.174,0.812 L 7.995,-3.494 13.51,0.723 C 13.164,1.055 12.878,1.44 12.636,1.857 L 7.219,-2.286 3.368,3.706 h 8.628 c -0.033,0.236 -0.072,0.471 -0.072,0.716 0,0.244 0.039,0.477 0.072,0.713 H 3.308 l 3.847,5.972 5.433,-4.209 c 0.232,0.418 0.501,0.813 0.836,1.149 l -5.497,4.259 6.797,10.55 c -0.794,0.411 -1.474,1.006 -1.96,1.75 L 3.04,16.091 -8.412,24.962 c -0.23,-0.419 -0.498,-0.813 -0.831,-1.15 L 1.953,15.138 -1.842,11.814 -9.438,23.639 c -0.568,-0.523 -1.25,-0.909 -2.007,-1.136 L -5.409,8.69 -8.131,6.306 c 0.232,-0.585 0.368,-1.218 0.368,-1.884 0,-0.245 -0.039,-0.48 -0.073,-0.716 h 4.606 l 1.582,-3.621 -1.261,-1.943 -5.305,4.2 C -8.412,1.899 -8.68,1.501 -8.988,1.136 l 5.3,-4.196 -7.045,-10.86 c 0.375,-0.176 0.718,-0.4 1.037,-0.658 l 6.974,10.753 0.014,-0.011 -6.944,-10.778 c 0.051,-0.043 0.105,-0.084 0.155,-0.128 l 6.946,10.782 3.725,-2.949 -10.465,-8.003 c 0.34,-0.337 0.615,-0.732 0.852,-1.151 L 1.939,-8.126 6.19,-17.853 H -7.834 c 0.032,-0.234 0.071,-0.467 0.071,-0.711 0,-0.246 -0.039,-0.48 -0.073,-0.716 h 14.65 z" /></g><g
           transform="translate(159.1146,230.043)"
           id="g260"><path
             id="path262"
             style="fill:#ef4136;fill-opacity:1;fill-rule:nonzero;stroke:none"
             d="m 0,0 c -0.437,-0.182 -0.915,-0.284 -1.417,-0.284 -0.563,0 -1.092,0.136 -1.571,0.361 -0.69,0.325 -1.256,0.856 -1.636,1.513 -0.313,0.545 -0.508,1.168 -0.508,1.841 10e-4,2.048 1.668,3.715 3.715,3.715 C 0.628,7.143 2.295,5.476 2.298,3.431 2.298,2.758 2.104,2.135 1.79,1.589 1.382,0.882 0.761,0.314 0,0 m -1.417,8.573 c -2.591,0 -4.719,-1.932 -5.07,-4.428 -0.034,-0.236 -0.073,-0.47 -0.073,-0.714 0,-0.244 0.039,-0.479 0.073,-0.714 0.107,-0.761 0.365,-1.471 0.767,-2.087 0.487,-0.744 1.166,-1.34 1.96,-1.75 0.706,-0.365 1.495,-0.592 2.343,-0.592 0.788,10e-4 1.525,0.194 2.193,0.513 0.859,0.41 1.589,1.039 2.106,1.828 0.414,0.633 0.676,1.364 0.777,2.147 0.029,0.217 0.067,0.431 0.067,0.655 0,0.196 -0.037,0.383 -0.058,0.574 -0.29,2.563 -2.445,4.568 -5.085,4.568" /></g><g
           transform="translate(157.6976,206.7734)"
           id="g264"><path
             id="path266"
             style="fill:#ef4136;fill-opacity:1;fill-rule:nonzero;stroke:none"
             d="m 0,0 c -2.048,0 -3.715,1.667 -3.715,3.715 10e-4,0.573 0.143,1.109 0.375,1.595 0.208,0.433 0.496,0.818 0.848,1.139 C -1.832,7.052 -0.962,7.43 0,7.43 0.91,7.429 1.734,7.085 2.382,6.538 2.746,6.23 3.047,5.857 3.271,5.433 3.545,4.916 3.714,4.338 3.715,3.715 3.715,1.667 2.048,0 0,0 M 4.413,6.312 C 4.17,6.725 3.882,7.103 3.538,7.43 2.615,8.31 1.373,8.857 0,8.857 -1.422,8.857 -2.711,8.276 -3.643,7.34 -3.978,7.004 -4.246,6.609 -4.479,6.191 -4.777,5.653 -4.981,5.062 -5.07,4.428 -5.104,4.192 -5.143,3.959 -5.143,3.715 c 0,-0.245 0.039,-0.48 0.073,-0.716 0.094,-0.667 0.314,-1.289 0.639,-1.849 0.243,-0.417 0.529,-0.802 0.874,-1.134 0.925,-0.89 2.175,-1.444 3.557,-1.444 1.364,0.002 2.599,0.547 3.521,1.418 0.345,0.327 0.636,0.703 0.881,1.114 0.334,0.56 0.563,1.184 0.663,1.855 0.038,0.249 0.078,0.497 0.078,0.756 0,0.23 -0.039,0.45 -0.068,0.673 C 4.982,5.084 4.756,5.732 4.413,6.312" /></g><g
           transform="translate(157.6976,183.7871)"
           id="g268"><path
             id="path270"
             style="fill:#ef4136;fill-opacity:1;fill-rule:nonzero;stroke:none"
             d="m 0,0 c -2.048,0 -3.715,1.667 -3.715,3.715 10e-4,0.608 0.162,1.174 0.422,1.681 0.379,0.738 0.988,1.333 1.743,1.683 0.474,0.219 0.995,0.35 1.55,0.35 C 0.521,7.428 1.015,7.318 1.465,7.123 2.236,6.79 2.86,6.195 3.257,5.459 3.539,4.937 3.714,4.349 3.715,3.715 3.715,1.667 2.048,0 0,0 M 4.392,6.353 C 4.145,6.763 3.848,7.137 3.499,7.462 3.474,7.485 3.445,7.505 3.419,7.527 3.064,7.846 2.668,8.114 2.235,8.325 1.557,8.655 0.805,8.857 0,8.857 -0.839,8.857 -1.62,8.636 -2.32,8.278 -2.749,8.06 -3.146,7.791 -3.494,7.466 -3.512,7.448 -3.533,7.436 -3.552,7.418 -3.896,7.088 -4.182,6.706 -4.424,6.291 -4.754,5.728 -4.976,5.101 -5.07,4.427 -5.104,4.192 -5.143,3.959 -5.143,3.715 c 0,-0.245 0.039,-0.48 0.073,-0.716 0.352,-2.495 2.479,-4.427 5.07,-4.427 2.573,0.003 4.693,1.913 5.065,4.387 0.038,0.249 0.078,0.497 0.078,0.756 0,0.23 -0.039,0.449 -0.068,0.672 C 4.98,5.099 4.747,5.763 4.392,6.353" /></g><g
           transform="translate(157.6976,160.9619)"
           id="g272"><path
             id="path274"
             style="fill:#ef4136;fill-opacity:1;fill-rule:nonzero;stroke:none"
             d="m 0,0 c -2.048,0 -3.715,1.667 -3.715,3.715 10e-4,0.564 0.137,1.094 0.363,1.572 0.206,0.437 0.493,0.824 0.843,1.149 0.169,0.155 0.351,0.295 0.547,0.418 0.415,0.261 0.883,0.437 1.386,0.516 C -0.388,7.4 -0.197,7.429 0,7.429 0.268,7.429 0.526,7.397 0.778,7.343 1.272,7.236 1.729,7.029 2.129,6.747 2.252,6.66 2.365,6.56 2.478,6.459 2.832,6.139 3.121,5.755 3.332,5.321 3.569,4.833 3.714,4.292 3.715,3.715 3.715,1.667 2.048,0 0,0 M 3.646,7.337 C 3.365,7.619 3.045,7.857 2.706,8.069 2.291,8.328 1.835,8.522 1.352,8.654 0.918,8.773 0.471,8.857 0,8.857 -0.401,8.857 -0.788,8.8 -1.163,8.713 -1.653,8.599 -2.108,8.405 -2.534,8.162 -2.948,7.926 -3.335,7.648 -3.667,7.31 -4,6.971 -4.27,6.575 -4.499,6.154 -4.896,5.425 -5.143,4.603 -5.143,3.715 c 0,-2.836 2.307,-5.143 5.143,-5.143 2.833,0.003 5.14,2.31 5.143,5.143 0,0.9 -0.252,1.734 -0.661,2.471 C 4.25,6.605 3.98,7 3.646,7.337" /></g><g
           transform="translate(131.0834,231.9092)"
           id="g276"><path
             id="path278"
             style="fill:#ef4136;fill-opacity:1;fill-rule:nonzero;stroke:none"
             d="m 0,0 c -0.471,-1.004 -1.372,-1.76 -2.47,-2.031 -0.089,-0.023 -0.178,-0.041 -0.271,-0.057 -0.201,-0.034 -0.405,-0.062 -0.616,-0.062 -0.209,0 -0.413,0.028 -0.613,0.061 -1.756,0.295 -3.101,1.816 -3.101,3.653 0,2.048 1.666,3.715 3.714,3.715 1.8,-0.003 3.305,-1.296 3.641,-3.001 C 0.33,2.047 0.357,1.809 0.357,1.564 0.357,1.32 0.331,1.082 0.285,0.851 0.227,0.551 0.126,0.269 0,0 M -3.357,6.707 C -6.193,6.707 -8.5,4.4 -8.5,1.564 c 0,-2.626 1.985,-4.773 4.53,-5.081 0.203,-0.024 0.404,-0.061 0.613,-0.061 0.211,0 0.412,0.038 0.616,0.063 0.29,0.036 0.57,0.094 0.844,0.175 0.756,0.228 1.439,0.613 2.006,1.136 0.065,0.058 0.135,0.11 0.196,0.173 0.333,0.338 0.601,0.731 0.831,1.15 0.29,0.53 0.488,1.11 0.577,1.732 0.033,0.235 0.072,0.469 0.072,0.713 0,0.245 -0.039,0.479 -0.072,0.714 -0.351,2.496 -2.479,4.429 -5.07,4.429" /></g><g
           transform="translate(128.3422,206.8359)"
           id="g280"><path
             id="path282"
             style="fill:#ef4136;fill-opacity:1;fill-rule:nonzero;stroke:none"
             d="m 0,0 c -0.201,-0.034 -0.405,-0.062 -0.616,-0.062 -0.209,0 -0.412,0.028 -0.613,0.061 -1.755,0.295 -3.101,1.815 -3.101,3.653 0,1.838 1.346,3.359 3.101,3.654 0.201,0.033 0.404,0.061 0.613,0.061 C -0.405,7.367 -0.201,7.338 0,7.304 1.519,7.045 2.729,5.871 3.025,4.365 3.071,4.134 3.099,3.896 3.099,3.652 3.099,3.407 3.072,3.169 3.026,2.937 2.73,1.43 1.521,0.256 0,0 m 0,8.732 c -0.204,0.026 -0.405,0.063 -0.616,0.063 -0.209,0 -0.409,-0.037 -0.613,-0.062 -2.544,-0.307 -4.53,-2.455 -4.53,-5.081 0,-2.626 1.986,-4.773 4.53,-5.081 0.204,-0.024 0.404,-0.061 0.613,-0.061 0.211,0 0.412,0.038 0.616,0.063 1.323,0.162 2.483,0.821 3.301,1.793 0.308,0.365 0.576,0.764 0.774,1.206 0.191,0.427 0.31,0.886 0.378,1.365 0.034,0.236 0.073,0.47 0.073,0.715 0,0.666 -0.136,1.299 -0.368,1.884 C 3.478,7.256 1.897,8.502 0,8.732" /></g><g
           transform="translate(127.726,183.7871)"
           id="g284"><path
             id="path286"
             style="fill:#ef4136;fill-opacity:1;fill-rule:nonzero;stroke:none"
             d="m 0,0 c -2.048,0 -3.714,1.667 -3.714,3.715 0,1.838 1.346,3.357 3.102,3.652 C -0.412,7.4 -0.209,7.429 0,7.429 0.211,7.429 0.415,7.4 0.616,7.366 0.885,7.32 1.144,7.252 1.389,7.152 1.774,6.995 2.12,6.769 2.429,6.499 L 2.38,6.424 2.453,6.479 C 2.813,6.16 3.107,5.775 3.321,5.34 3.464,5.053 3.578,4.75 3.643,4.427 3.688,4.196 3.715,3.959 3.715,3.715 3.715,3.47 3.688,3.231 3.643,2.999 3.308,1.293 1.803,0 0,0 M 4.466,6.216 C 4.229,6.636 3.954,7.03 3.614,7.367 3.551,7.43 3.475,7.478 3.408,7.537 3.358,7.581 3.305,7.622 3.253,7.665 3.238,7.677 3.224,7.689 3.209,7.701 2.891,7.959 2.547,8.184 2.172,8.359 1.689,8.586 1.167,8.729 0.616,8.795 0.412,8.82 0.211,8.857 0,8.857 -0.209,8.857 -0.409,8.82 -0.612,8.796 -3.157,8.488 -5.143,6.341 -5.143,3.715 c 0,-2.836 2.307,-5.143 5.143,-5.143 1.34,10e-4 2.551,0.53 3.467,1.373 C 3.818,0.269 4.12,0.638 4.371,1.047 4.73,1.632 4.969,2.291 5.069,2.999 5.104,3.235 5.143,3.47 5.143,3.715 5.143,3.959 5.104,4.192 5.071,4.427 4.98,5.07 4.772,5.671 4.466,6.216" /></g><g
           transform="translate(185.0141,236.0596)"
           id="g288"><path
             id="path290"
             style="fill:#ef4136;fill-opacity:1;fill-rule:nonzero;stroke:none"
             d="m 0,0 c 0.701,0.702 1.634,1.089 2.626,1.089 2.045,-0.003 3.712,-1.67 3.715,-3.715 0,-1.838 -1.345,-3.357 -3.1,-3.652 -0.201,-0.034 -0.404,-0.063 -0.615,-0.063 -0.21,0 -0.413,0.029 -0.614,0.063 V -6.11 L 1.941,-6.271 c -1.216,0.228 -2.224,1.049 -2.712,2.155 -0.121,0.275 -0.203,0.57 -0.254,0.876 -0.035,0.201 -0.063,0.404 -0.063,0.614 0,0.209 0.026,0.413 0.061,0.614 C -0.902,-1.254 -0.554,-0.554 0,0 m -1.91,-4.996 c 0.222,-0.424 0.49,-0.817 0.816,-1.161 0.05,-0.052 0.096,-0.106 0.148,-0.155 0.634,-0.615 1.427,-1.056 2.31,-1.281 0.211,-0.054 0.428,-0.087 0.648,-0.113 0.204,-0.025 0.404,-0.063 0.614,-0.063 0.211,0 0.411,0.039 0.615,0.063 2.541,0.311 4.526,2.458 4.528,5.08 0,2.836 -2.307,5.143 -5.143,5.143 -2.625,0 -4.772,-1.985 -5.08,-4.529 -0.025,-0.204 -0.063,-0.403 -0.063,-0.614 0,-0.21 0.038,-0.41 0.063,-0.614 0.076,-0.629 0.261,-1.218 0.544,-1.756" /></g><g
           transform="translate(188.2553,206.7949)"
           id="g292"><path
             id="path294"
             style="fill:#ef4136;fill-opacity:1;fill-rule:nonzero;stroke:none"
             d="m 0,0 c -0.201,-0.034 -0.404,-0.062 -0.615,-0.062 -0.21,0 -0.413,0.028 -0.614,0.062 -1.521,0.256 -2.732,1.43 -3.028,2.938 -0.045,0.231 -0.072,0.469 -0.072,0.714 0,0.243 0.025,0.482 0.07,0.714 0.139,0.72 0.488,1.382 1.018,1.912 0.553,0.554 1.254,0.903 2.012,1.029 0.202,0.033 0.406,0.059 0.614,0.059 C -0.404,7.366 -0.201,7.338 0,7.304 1.752,7.007 3.098,5.487 3.1,3.652 3.1,1.814 1.755,0.295 0,0 m 0,8.732 c -0.204,0.026 -0.404,0.063 -0.615,0.063 -0.21,0 -0.41,-0.037 -0.614,-0.063 -1.897,-0.229 -3.477,-1.474 -4.159,-3.193 -0.232,-0.586 -0.37,-1.22 -0.37,-1.887 0,-0.245 0.039,-0.479 0.072,-0.714 0.069,-0.48 0.188,-0.941 0.378,-1.37 0.198,-0.441 0.466,-0.839 0.773,-1.205 0.818,-0.973 1.98,-1.631 3.306,-1.791 0.204,-0.025 0.404,-0.062 0.614,-0.062 0.211,0 0.411,0.038 0.615,0.062 2.541,0.311 4.525,2.457 4.527,5.08 0,2.625 -1.984,4.773 -4.527,5.08" /></g><g
           transform="translate(187.64,183.7441)"
           id="g296"><path
             id="path298"
             style="fill:#ef4136;fill-opacity:1;fill-rule:nonzero;stroke:none"
             d="m 0,0 c -1.804,0 -3.309,1.294 -3.642,3.002 -0.045,0.23 -0.072,0.468 -0.072,0.712 0,0.243 0.025,0.482 0.07,0.716 0.065,0.333 0.189,0.647 0.34,0.949 0.177,0.348 0.394,0.678 0.678,0.962 0.327,0.327 0.708,0.578 1.118,0.761 0.284,0.127 0.584,0.215 0.894,0.267 C -0.412,7.402 -0.208,7.429 0,7.429 0.211,7.429 0.414,7.4 0.615,7.366 2.368,7.069 3.714,5.549 3.715,3.714 3.715,1.666 2.048,0 0,0 M 0.615,8.794 C 0.411,8.819 0.211,8.856 0,8.856 -0.21,8.856 -0.41,8.819 -0.614,8.794 -1.186,8.726 -1.726,8.571 -2.225,8.33 -2.657,8.12 -3.053,7.853 -3.408,7.535 -3.467,7.483 -3.534,7.44 -3.591,7.385 -3.931,7.053 -4.208,6.665 -4.446,6.25 -4.763,5.697 -4.978,5.086 -5.07,4.43 -5.104,4.193 -5.143,3.959 -5.143,3.714 c 0,-0.244 0.039,-0.478 0.073,-0.712 0.099,-0.709 0.337,-1.37 0.696,-1.956 0.25,-0.409 0.552,-0.778 0.903,-1.102 0.916,-0.844 2.129,-1.373 3.471,-1.373 2.833,0.004 5.14,2.311 5.143,5.143 0,2.626 -1.985,4.772 -4.528,5.08" /></g></g></g><text
       id="text302"
       style="font-variant:normal;font-weight:500;font-stretch:normal;font-size:23px;font-family:'Saira Medium';-inkscape-font-specification:Saira-Medium;writing-mode:lr-tb;fill:#323031;fill-opacity:1;fill-rule:nonzero;stroke:none"
       transform="matrix(1,0,0,-1,320.7412,143.9111)"><tspan
         id="tspan300"
         y="0"
         x="0 14.95">By</tspan></text>
</g></svg>