<?xml version="1.0" encoding="UTF-8" standalone="no"?>
<!DOCTYPE svg PUBLIC "-//W3C//DTD SVG 1.1//EN"
"http://www.w3.org/Graphics/SVG/1.1/DTD/svg11.dtd">


<!-- Page 1 -->
<svg x="0" y="0" width="458" height="152" viewBox="0 0 458 152" version="1.1" xmlns="http://www.w3.org/2000/svg" xmlns:xlink="http://www.w3.org/1999/xlink"
style="display: block;margin-left: auto;margin-right: auto;">
<defs>

<style type="text/css"><![CDATA[

.g0_1{
fill: #3D3D3D;
}
.g1_1{
fill: #AB47BC;
}
.g2_1{
fill: #D5D4D8;
}

]]></style>

</defs>
<path d="M0,0
L0,152
L458,152
L458,0 Z " 
fill="#FFFFFF" stroke="none" />
<path d="M157.4,104.6h33.1c11.6,0,16,-3.3,16,-11.8c0,-5.6,-2.4,-9.6,-6.6,-11c-2.1,-.7,-5.1,-.9,-11.7,-.9h-6.3c-9.2,0,-15.1,-1.2,-19.1,-3.7c-5.2,-3.3,-8.1,-9.1,-8.1,-16.3c0,-8.4,3.9,-15.5,10.4,-19.5c4.4,-2.5,9.8,-3.6,19.3,-3.6h31.4v9.8H184.4c-6.8,0,-9.8,.6,-12.4,2.2c-2.6,1.8,-4.4,5.3,-4.4,9.4c0,7.7,4.8,10.7,16.8,10.7H189c12.9,0,18.3,1,22.6,4.1c4.9,3.8,7.9,10.5,7.9,18.5c0,8.7,-3.8,15.4,-10.6,18.9c-4.4,2.3,-8.9,3,-19.9,3H157.4Z" class="g0_1" />
<path d="M265.1,47l-26.5,67.4h-13L257.3,37.8h16.1l30.4,76.6h-13Z" class="g0_1" />
<path d="M322.6,37.8V82.4c0,9.7,1,14.2,3.6,17c3.8,3.7,8.7,5.3,16.5,5.2h19.7v9.8H340.3c-21.2,.3,-30.5,-9.2,-30,-30.6v-46Z" class="g0_1" />
<path d="M359.5,47.6V37.8h65.2v9.8H398.3v66.8H386V47.6Z" class="g0_1" />
<path d="M117.6,125H48.5c-6.3,0,-11.4,-5.1,-11.4,-11.4V99.9c0,-6.3,5.1,-11.4,11.4,-11.4H81.7c3.1,0,6.2,-1.1,8.6,-3.2l4.2,-3.6c.7,-.7,.9,-1.1,1.1,-1.6c.8,-2,2.1,-2.7,4.7,-2.7h17.3c6.3,0,11.4,5.2,11.4,11.5v24.7c0,6.3,-5.1,11.4,-11.4,11.4Z" class="g0_1" />
<path d="M72.9,78.8H46.5c-5.2,0,-9.4,-4.2,-9.4,-9.4V40.7c0,-5.2,4.2,-9.4,9.4,-9.4h73.1c5.2,0,9.4,4.2,9.4,9.4V58.3c0,5.2,-4.2,9.4,-9.4,9.4H95.7c-2.7,0,-5.3,1,-7.3,2.7L83.1,75c-2.9,2.5,-6.5,3.8,-10.2,3.8Z" class="g0_1" />
<path d="M113.5,120.3h-69c-6,0,-10.8,-4.8,-10.8,-10.8V95.9C33.7,89.9,38.5,85,44.5,85H77.6c3.3,0,6.5,-1.1,9,-3.3l4.2,-3.6c3.1,-2.7,7,-4.1,11.1,-4.1h11.6c6,0,10.8,4.8,10.8,10.8v24.7c0,6,-4.8,10.8,-10.8,10.8Z" class="g0_1" />
<path d="M68.8,74.1H42.5c-4.9,0,-8.8,-3.9,-8.8,-8.8V36.6c0,-4.8,3.9,-8.8,8.8,-8.8h73c4.9,0,8.8,4,8.8,8.8V54.3c0,4.8,-3.9,8.8,-8.8,8.8H91.6c-2.8,0,-5.5,1,-7.7,2.8l-5.3,4.6c-2.7,2.4,-6.2,3.6,-9.8,3.6Z" class="g0_1" />
<path d="M42.5,31c-3.1,0,-5.7,2.5,-5.7,5.6V65.3c0,3.1,2.6,5.7,5.7,5.7H68.8c2.9,0,5.6,-1.1,7.7,-2.9l5.4,-4.6c2.7,-2.3,6.1,-3.6,9.7,-3.6h23.9c3.1,0,5.6,-2.5,5.6,-5.6V36.6c0,-3.1,-2.5,-5.6,-5.6,-5.6Z" class="g1_1" />
<path d="M44.5,88.2c-4.2,0,-7.7,3.4,-7.7,7.7v13.6c0,4.2,3.5,7.6,7.7,7.6h69c4.2,0,7.6,-3.4,7.6,-7.6V84.8c0,-4.2,-3.4,-7.6,-7.6,-7.6H101.9c-3.3,0,-6.5,1.1,-9,3.3l-4.2,3.6c-3.1,2.7,-7,4.1,-11.1,4.1Z" class="g2_1" />

</svg>
