<?xml version="1.0" standalone="no"?>
<!DOCTYPE svg PUBLIC "-//W3C//DTD SVG 20010904//EN"
 "http://www.w3.org/TR/2001/REC-SVG-20010904/DTD/svg10.dtd">
<svg version="1.0" xmlns="http://www.w3.org/2000/svg"
 width="1219.000000pt" height="1219.000000pt" viewBox="0 0 1219.000000 1219.000000"
 preserveAspectRatio="xMidYMid meet">
<metadata>
Created by potrace 1.11, written by Peter Selinger 2001-2013
</metadata>
<g transform="translate(0.000000,1219.000000) scale(0.100000,-0.100000)"
fill="#000000" stroke="none">
<path d="M5740 11430 c0 -6 -30 -10 -70 -10 -40 0 -70 -4 -70 -10 0 -5 -18
-10 -40 -10 -22 0 -40 -4 -40 -10 0 -5 -18 -10 -40 -10 -22 0 -40 -4 -40 -10
0 -5 -13 -10 -30 -10 -16 0 -30 -4 -30 -10 0 -5 -11 -10 -25 -10 -14 0 -25 -4
-25 -10 0 -5 -11 -10 -25 -10 -14 0 -25 -4 -25 -10 0 -5 -11 -10 -25 -10 -14
0 -25 -4 -25 -10 0 -5 -11 -10 -25 -10 -14 0 -25 -4 -25 -10 0 -5 -9 -10 -20
-10 -11 0 -20 -4 -20 -10 0 -5 -9 -10 -20 -10 -11 0 -20 -4 -20 -10 0 -5 -9
-10 -20 -10 -11 0 -20 -4 -20 -10 0 -5 -9 -10 -20 -10 -11 0 -20 -4 -20 -10 0
-5 -9 -10 -20 -10 -11 0 -20 -4 -20 -10 0 -5 -9 -10 -20 -10 -11 0 -20 -4 -20
-10 0 -5 -9 -10 -20 -10 -11 0 -20 -4 -20 -10 0 -5 -9 -10 -20 -10 -11 0 -20
-4 -20 -10 0 -5 -7 -10 -15 -10 -8 0 -15 -4 -15 -10 0 -5 -9 -10 -20 -10 -11
0 -20 -4 -20 -10 0 -5 -9 -10 -20 -10 -11 0 -20 -4 -20 -10 0 -5 -7 -10 -15
-10 -8 0 -15 -4 -15 -10 0 -5 -9 -10 -20 -10 -11 0 -20 -4 -20 -10 0 -5 -7
-10 -15 -10 -8 0 -15 -4 -15 -10 0 -5 -9 -10 -20 -10 -11 0 -20 -4 -20 -10 0
-5 -7 -10 -15 -10 -8 0 -15 -4 -15 -10 0 -5 -7 -10 -15 -10 -8 0 -15 -4 -15
-10 0 -5 -9 -10 -20 -10 -11 0 -20 -4 -20 -10 0 -5 -7 -10 -15 -10 -8 0 -15
-4 -15 -10 0 -5 -9 -10 -20 -10 -11 0 -20 -4 -20 -10 0 -5 -7 -10 -15 -10 -8
0 -15 -4 -15 -10 0 -5 -9 -10 -20 -10 -11 0 -20 -4 -20 -10 0 -5 -7 -10 -15
-10 -8 0 -15 -4 -15 -10 0 -5 -7 -10 -15 -10 -8 0 -15 -4 -15 -10 0 -5 -9 -10
-20 -10 -11 0 -20 -4 -20 -10 0 -5 -7 -10 -15 -10 -8 0 -15 -4 -15 -10 0 -5
-7 -10 -15 -10 -8 0 -15 -4 -15 -10 0 -5 -9 -10 -20 -10 -11 0 -20 -4 -20 -10
0 -5 -7 -10 -15 -10 -8 0 -15 -4 -15 -10 0 -5 -7 -10 -15 -10 -8 0 -15 -4 -15
-10 0 -5 -7 -10 -15 -10 -8 0 -15 -4 -15 -10 0 -5 -9 -10 -20 -10 -11 0 -20
-4 -20 -10 0 -5 -7 -10 -15 -10 -8 0 -15 -4 -15 -10 0 -5 -7 -10 -15 -10 -8 0
-15 -4 -15 -10 0 -5 -7 -10 -15 -10 -8 0 -15 -4 -15 -10 0 -5 -7 -10 -15 -10
-8 0 -15 -4 -15 -10 0 -5 -7 -10 -15 -10 -8 0 -15 -4 -15 -10 0 -5 -7 -10 -15
-10 -8 0 -15 -4 -15 -10 0 -5 -7 -10 -15 -10 -8 0 -15 -4 -15 -10 0 -5 -7 -10
-15 -10 -8 0 -15 -4 -15 -10 0 -5 -7 -10 -15 -10 -8 0 -15 -4 -15 -10 0 -5 -6
-10 -13 -10 -7 0 -19 -9 -27 -20 -8 -11 -20 -20 -27 -20 -7 0 -13 -4 -13 -10
0 -5 -7 -10 -15 -10 -8 0 -15 -4 -15 -10 0 -5 -6 -10 -13 -10 -7 0 -19 -9 -27
-20 -8 -11 -19 -20 -25 -20 -6 0 -17 -9 -25 -20 -8 -11 -20 -20 -27 -20 -7 0
-13 -4 -13 -10 0 -5 -5 -10 -11 -10 -6 0 -24 -13 -39 -30 -15 -16 -31 -30 -35
-30 -4 0 -20 -13 -35 -30 -15 -16 -31 -30 -34 -30 -9 0 -358 -353 -376 -380
-8 -12 -32 -40 -52 -62 -21 -22 -38 -43 -38 -48 0 -4 -12 -21 -27 -38 -16 -16
-35 -40 -43 -52 -8 -12 -23 -31 -32 -42 -10 -11 -20 -29 -23 -39 -4 -11 -10
-19 -14 -19 -5 0 -14 -13 -21 -30 -7 -16 -16 -30 -20 -30 -4 0 -13 -13 -20
-30 -7 -16 -16 -30 -20 -30 -4 0 -13 -13 -20 -30 -7 -16 -16 -30 -20 -30 -4 0
-15 -19 -26 -41 -10 -23 -24 -47 -30 -54 -15 -14 -198 -379 -218 -432 -8 -21
-24 -63 -36 -93 -74 -184 -154 -452 -194 -650 -140 -699 -78 -1445 174 -2090
12 -30 25 -66 30 -80 30 -96 227 -480 298 -584 17 -26 39 -61 48 -79 9 -17 22
-37 28 -44 19 -21 30 -36 74 -101 23 -35 47 -69 52 -75 6 -7 26 -32 45 -57 19
-25 39 -49 43 -55 14 -17 43 -79 48 -100 2 -11 8 -21 13 -23 6 -2 8 -9 5 -17
-3 -7 -1 -16 4 -19 6 -3 8 -15 5 -26 -3 -11 -1 -20 5 -20 6 0 8 -9 5 -20 -3
-11 -1 -20 4 -20 5 0 8 -15 7 -32 -2 -18 3 -56 10 -84 9 -33 10 -57 4 -68 -6
-11 -5 -16 3 -16 6 0 9 -8 6 -20 -3 -10 1 -24 9 -31 10 -8 11 -16 3 -30 -6
-13 -6 -19 1 -19 15 0 12 -27 -6 -44 -14 -15 -14 -16 2 -16 16 0 16 -1 1 -18
-10 -10 -14 -22 -10 -25 7 -7 -18 -11 -51 -7 -11 1 -15 -3 -12 -9 11 -17 -1
-13 -38 11 -35 23 -100 112 -101 137 0 7 -16 25 -34 40 -19 14 -32 20 -27 14
4 -8 1 -13 -8 -13 -19 0 -19 3 -5 -60 8 -39 15 -50 30 -50 18 0 19 -10 19
-228 l0 -228 32 -12 c23 -8 34 -9 36 -2 3 7 9 5 16 -4 6 -9 25 -19 43 -22 27
-5 32 -3 36 17 4 23 4 23 6 -2 1 -19 8 -29 24 -33 34 -9 35 -8 40 27 l4 32 1
-32 2 -31 38 11 c20 6 39 14 42 17 3 3 18 6 35 8 16 2 32 7 35 10 3 4 16 9 30
10 14 2 26 5 27 6 1 1 5 187 9 415 6 340 10 415 22 427 8 9 12 27 10 44 l-5
30 94 0 93 0 0 -33 c0 -22 7 -36 21 -46 21 -12 22 -18 15 -114 -3 -55 -3 -282
0 -504 6 -327 10 -403 21 -403 7 0 13 5 13 10 0 6 9 10 20 10 28 0 25 20 -2
21 -22 1 -22 1 2 8 l25 8 -25 5 c-23 5 -23 5 -2 7 12 0 22 6 22 11 0 6 -10 10
-22 11 -22 1 -22 1 2 8 l25 8 -25 5 c-23 5 -23 5 -2 7 12 0 22 6 22 11 0 6
-10 10 -22 11 -22 1 -22 1 2 8 l25 8 -25 5 c-23 5 -23 5 -2 7 15 1 22 7 22 20
0 12 -8 21 -22 24 l-23 4 23 2 c15 1 22 7 22 21 0 14 -7 20 -22 21 -22 1 -22
1 2 8 l25 8 -25 5 c-23 5 -23 5 -2 7 12 0 22 6 22 11 0 6 -10 10 -22 11 -22 1
-22 1 2 8 l25 8 -25 5 c-23 5 -23 5 -2 7 12 0 22 6 22 11 0 6 -10 10 -22 11
-22 1 -22 1 2 8 l25 8 -25 5 c-23 5 -23 5 -2 7 12 0 22 6 22 11 0 6 -10 10
-22 11 -22 1 -22 1 2 8 l25 8 -25 5 c-23 5 -23 5 -2 7 12 0 22 6 22 11 0 6
-10 10 -22 11 -22 1 -22 1 2 8 l25 8 -25 5 c-23 5 -23 5 -2 7 12 0 22 6 22 11
0 6 -10 10 -22 11 -22 1 -22 1 2 8 l25 8 -25 5 c-23 5 -23 5 -2 7 15 1 22 7
22 20 0 12 -8 21 -22 24 l-23 4 23 2 c15 1 22 7 22 21 0 14 -7 20 -22 21 -22
1 -22 1 2 8 l25 8 -25 5 c-23 5 -23 5 -2 7 12 0 22 6 22 11 0 6 -10 10 -22 11
-22 1 -22 1 2 8 l25 8 -25 5 c-23 5 -23 5 -2 7 12 0 22 6 22 11 0 6 -10 10
-22 11 -22 1 -22 1 2 8 l25 8 -25 5 c-23 5 -23 5 -2 7 12 0 22 6 22 11 0 6
-10 10 -22 11 -22 1 -22 1 2 9 l25 8 -25 2 c-23 1 -23 2 -5 10 l20 8 -20 8
c-19 8 -19 8 5 15 l25 7 -25 2 c-23 1 -23 2 -5 10 17 7 17 9 3 9 -26 1 -22 21
5 22 21 1 21 1 -3 8 l-25 8 25 5 c23 5 23 5 3 7 -13 0 -23 6 -23 11 0 6 10 10
23 11 21 1 21 1 -3 8 l-25 8 25 5 c23 5 23 5 3 7 -13 0 -23 6 -23 11 0 6 10
10 23 11 21 1 21 1 -3 8 l-25 8 25 5 c23 5 23 5 3 7 -27 1 -31 21 -5 22 14 0
14 2 -3 8 -19 8 -18 9 5 13 23 5 23 5 3 7 -16 1 -23 7 -23 20 0 12 8 21 23 24
l22 4 -22 2 c-31 1 -32 41 -2 41 27 0 19 24 -10 28 -22 4 -25 28 -3 26 7 -1
66 -2 132 -2 72 -1 120 -6 120 -12 0 -5 -9 -10 -20 -10 -27 0 -25 -28 3 -33
l22 -4 -22 -2 c-13 0 -23 -5 -23 -11 0 -5 10 -10 23 -11 21 -1 21 -1 -3 -9
l-25 -8 25 -2 25 -2 -25 -7 c-17 -5 -21 -9 -12 -15 6 -4 17 -4 22 -1 6 3 10 1
10 -4 0 -6 -10 -11 -22 -12 -22 -1 -22 -1 2 -9 24 -8 24 -8 3 -9 -13 -1 -23
-6 -23 -12 0 -6 9 -9 20 -6 11 3 20 1 20 -4 0 -5 -10 -9 -22 -10 -22 -1 -22
-1 2 -8 l25 -8 -25 -5 c-23 -5 -23 -5 -2 -7 12 0 22 -5 22 -11 0 -5 -10 -10
-22 -11 -22 -1 -22 -1 2 -8 l25 -8 -25 -5 c-23 -5 -23 -5 -2 -7 12 0 22 -5 22
-11 0 -5 -10 -10 -22 -11 -20 -1 -19 -2 5 -9 21 -7 37 -4 63 12 28 16 34 26
34 54 l0 34 73 0 c43 1 82 6 97 15 14 8 28 14 33 15 4 0 7 -155 7 -345 l0
-345 80 0 80 0 0 218 c0 161 -3 221 -12 231 -10 11 -10 14 0 18 16 6 16 40 0
47 -10 5 -10 7 0 12 16 7 16 41 0 48 -10 5 -10 7 0 12 6 3 12 14 12 24 0 10
-6 21 -12 24 -10 5 -10 7 0 12 8 4 12 30 12 77 1 47 6 79 15 91 11 15 15 48
14 134 0 63 2 116 5 120 3 3 6 -46 6 -109 1 -102 2 -112 15 -95 8 11 18 17 21
13 3 -3 6 -202 5 -441 l-1 -436 79 0 c66 0 80 -3 86 -17 4 -10 6 -84 5 -165
-1 -117 2 -148 12 -148 11 0 13 113 15 607 2 333 5 608 7 610 2 2 26 6 55 10
49 6 64 16 39 26 -7 3 46 5 117 5 72 0 124 -2 118 -5 -23 -9 -13 -23 16 -23
16 0 41 -4 55 -10 24 -9 26 -15 26 -65 0 -42 3 -55 15 -55 13 0 15 -67 15
-545 0 -319 4 -545 9 -545 5 0 10 55 10 122 1 68 4 139 6 158 3 19 12 184 20
365 14 295 14 365 0 660 -8 182 -15 347 -15 368 l0 37 260 0 261 0 -6 -122
c-35 -672 -40 -876 -28 -1158 6 -157 15 -319 20 -360 l8 -75 5 120 5 120 55 6
55 6 -55 3 -55 3 55 7 55 7 -55 3 -55 3 55 7 55 7 -51 1 c-49 2 -50 3 -50 32
0 29 1 30 50 32 l51 1 -55 7 -55 7 55 3 55 3 -55 7 -55 7 55 3 55 3 -50 6
c-50 6 -50 6 -51 44 l0 37 50 2 51 1 -55 7 -55 7 55 3 55 3 -55 7 -55 7 55 3
55 3 -50 6 c-49 6 -50 6 -50 41 0 35 1 35 50 41 l50 6 -55 3 -55 3 55 7 55 7
-55 3 -55 3 55 7 55 7 -51 1 c-49 2 -50 3 -50 32 0 29 1 30 50 32 l51 1 -55 7
-55 7 55 3 55 3 -55 7 -55 7 55 3 55 3 -50 6 c-49 6 -50 6 -50 41 0 35 1 35
50 41 l50 6 -55 3 -55 3 55 7 55 7 -55 3 -55 3 55 7 55 7 -51 1 c-49 2 -50 3
-50 32 0 29 1 30 50 32 l51 1 -55 7 -55 7 55 3 55 3 -55 7 -55 7 55 3 55 3
-55 7 -55 7 55 3 55 3 -50 6 c-46 6 -50 8 -51 34 -1 26 1 27 50 29 l51 1 -55
7 -55 7 53 1 c38 2 52 6 52 16 0 11 -15 16 -52 19 l-53 3 53 2 c67 3 68 22 0
22 -51 0 -60 14 -10 16 15 1 35 2 45 3 9 0 17 8 17 16 0 11 -12 15 -50 15 -27
0 -50 5 -50 10 0 6 65 10 175 10 l175 0 2 -617 3 -618 5 715 5 715 159 3 159
3 -7 -536 c-7 -534 -1 -899 16 -889 4 3 8 239 8 525 l0 519 245 0 245 0 0 179
0 178 38 7 c48 8 246 8 295 0 l37 -7 0 -532 0 -532 69 -2 69 -2 3 91 c3 67 8
93 19 100 13 9 13 10 0 10 -12 0 -13 2 -1 9 11 7 11 9 0 14 -12 4 -11 7 1 16
13 10 13 11 0 11 -13 0 -13 1 0 10 10 6 11 10 3 10 -7 0 -13 9 -13 19 0 11 6
22 13 24 10 4 10 6 0 6 -7 1 -13 10 -13 20 0 11 6 22 13 24 10 4 10 6 0 6 -7
1 -13 10 -13 20 0 11 6 22 13 24 10 4 10 6 0 6 -7 1 -13 10 -13 21 0 11 6 20
13 20 8 0 7 4 -3 10 -13 9 -13 10 0 10 13 0 13 1 0 10 -13 9 -13 11 0 20 13 9
13 10 0 10 -12 0 -13 2 -1 9 11 7 11 9 0 14 -12 4 -11 7 1 16 13 10 13 11 0
11 -13 0 -13 1 0 10 13 9 13 10 0 10 -13 0 -13 1 0 10 13 9 13 11 0 20 -13 9
-13 10 0 10 12 0 13 2 1 9 -11 7 -11 9 0 14 12 4 11 7 -1 16 -13 10 -13 11 0
11 12 0 13 2 1 9 -11 7 -11 9 0 14 12 4 11 7 -1 16 -13 10 -13 11 0 11 13 0
13 1 0 10 -13 9 -13 10 0 10 13 0 13 1 0 10 -13 9 -13 11 0 20 13 9 13 10 0
10 -12 0 -13 2 -1 9 11 7 11 9 0 14 -12 4 -11 7 1 16 13 10 13 11 0 11 -12 0
-13 2 -1 9 11 7 11 9 0 14 -12 4 -11 7 1 16 13 10 13 11 0 11 -13 0 -13 1 0
10 13 9 13 10 0 10 -13 0 -13 1 0 10 13 9 13 11 0 20 -13 9 -13 10 0 10 12 0
13 2 1 9 -11 7 -11 9 0 14 12 4 11 7 -1 16 -13 10 -13 11 0 11 13 0 13 1 0 10
-13 9 -13 10 0 10 13 0 13 1 0 10 -13 9 -13 11 0 20 13 9 13 11 0 20 -13 9
-13 11 0 20 13 9 13 11 0 20 -13 9 -13 11 0 20 13 8 13 11 1 19 -28 18 -3 39
55 47 61 7 208 1 237 -11 15 -6 17 -23 17 -136 l0 -129 114 0 c104 0 114 -2
119 -19 3 -14 11 -18 26 -14 18 5 21 1 21 -26 l0 -31 -140 0 c-87 0 -140 -4
-140 -10 0 -6 53 -10 140 -10 133 0 140 -1 140 -20 0 -19 -7 -20 -130 -20 -80
0 -130 -4 -130 -10 0 -6 50 -10 130 -10 109 0 130 -2 130 -15 0 -13 -21 -15
-125 -15 -77 0 -125 -4 -125 -10 0 -6 48 -10 125 -10 104 0 125 -2 125 -15 0
-12 -20 -15 -120 -15 -73 0 -120 -4 -120 -10 0 -6 47 -10 120 -10 73 0 120 -4
120 -10 0 -6 -43 -10 -110 -10 -91 0 -110 -3 -110 -15 0 -12 19 -15 110 -15
67 0 110 -4 110 -10 0 -6 -42 -10 -105 -10 -63 0 -105 -4 -105 -10 0 -6 42
-10 105 -10 87 0 105 -3 105 -15 0 -12 -18 -15 -100 -15 -60 0 -100 -4 -100
-10 0 -6 40 -10 100 -10 82 0 100 -3 100 -15 0 -12 -17 -15 -96 -15 -61 0 -93
-4 -89 -10 3 -5 46 -10 96 -10 76 0 89 -2 89 -16 0 -15 -10 -16 -85 -10 -57 5
-85 4 -85 -3 0 -7 32 -11 85 -11 69 0 85 -3 85 -15 0 -12 -16 -15 -80 -15 -47
0 -80 -4 -80 -10 0 -6 33 -10 80 -10 64 0 80 -3 80 -15 0 -12 -15 -15 -76 -15
-47 0 -73 -4 -69 -10 3 -5 37 -10 76 -10 54 0 69 -3 69 -15 0 -10 -17 -15 -67
-18 l-68 -3 68 -2 c59 -2 67 -4 67 -22 0 -16 -8 -20 -62 -23 l-63 -3 63 -2
c48 -2 62 -5 62 -17 0 -11 -12 -15 -49 -15 -28 0 -53 -4 -56 -10 -4 -6 15 -10
49 -10 43 0 56 -3 56 -15 0 -11 -12 -15 -51 -15 -31 0 -48 -4 -44 -10 3 -5 26
-10 51 -10 24 0 44 -4 44 -10 0 -5 -18 -10 -40 -10 -29 0 -40 -4 -40 -15 0
-11 11 -15 40 -15 22 0 40 -4 40 -10 0 -5 -16 -10 -35 -10 -19 0 -35 -4 -35
-10 0 -5 16 -10 35 -10 24 0 35 -5 35 -15 0 -10 -10 -15 -30 -15 -16 0 -30 -4
-30 -10 0 -5 14 -10 30 -10 20 0 30 -5 30 -15 0 -9 -10 -15 -26 -15 -14 0 -23
-4 -19 -10 3 -5 15 -10 26 -10 10 0 19 -4 19 -10 0 -5 -7 -10 -15 -10 -8 0
-15 -7 -15 -15 0 -8 7 -15 15 -15 18 0 20 -16 3 -24 -10 -5 -10 -7 0 -12 8 -4
12 -36 12 -107 0 -91 1 -99 15 -81 12 16 14 74 15 346 l0 327 88 3 c82 3 87 4
90 26 3 18 -1 22 -25 22 -15 0 -46 12 -67 25 -36 21 -38 25 -20 32 25 10 313
10 338 0 18 -7 16 -11 -20 -32 -21 -13 -52 -25 -67 -25 -25 0 -28 -3 -25 -27
3 -28 3 -28 91 -31 l87 -3 0 -139 c0 -88 4 -140 10 -140 6 0 42 9 81 19 38 11
115 25 170 32 100 11 339 8 372 -6 9 -4 24 -5 32 -2 8 4 17 2 20 -3 4 -6 13
-10 21 -10 8 0 12 5 9 10 -3 6 3 10 14 10 12 0 21 5 21 10 0 6 10 10 23 11 27
1 -67 28 -103 30 -14 0 -19 3 -12 6 25 10 12 33 -20 34 -31 1 -32 1 -8 9 24 8
24 8 3 9 -13 1 -23 6 -23 11 0 6 -19 10 -42 10 -32 0 -39 3 -28 10 11 7 6 10
-20 11 -32 1 -33 2 -10 9 l25 8 -25 2 c-14 1 -19 4 -12 7 16 6 15 23 -2 23 -8
0 -17 7 -20 16 -8 22 -8 22 12 27 12 3 10 5 -8 7 -23 1 -23 2 -5 10 17 7 16 9
-10 10 -25 1 -27 3 -10 9 l20 8 -20 5 c-16 5 -17 6 -2 7 9 0 17 6 17 11 0 6 8
10 18 11 14 0 14 2 -3 9 l-20 9 20 1 c14 2 11 5 -10 10 -25 6 -26 8 -7 9 19 1
22 5 17 21 -5 14 -2 20 9 20 9 0 16 9 16 20 0 12 7 20 18 20 14 0 15 2 2 10
-13 9 -13 10 0 10 9 0 22 9 30 20 8 11 20 20 27 20 7 0 13 5 13 10 0 6 6 10
13 10 7 0 19 9 27 20 8 11 20 20 27 20 7 0 13 5 13 10 0 6 5 10 11 10 6 0 24
13 39 30 15 16 31 30 35 30 4 0 24 18 45 40 21 22 41 40 45 40 7 0 41 36 85
90 14 17 42 49 62 71 20 21 40 48 43 59 4 11 10 20 14 20 5 0 14 14 21 30 7
17 16 30 20 30 4 0 13 14 20 30 7 17 16 30 21 30 5 0 9 9 9 20 0 11 4 20 8 20
7 0 39 64 87 175 51 118 97 303 125 500 25 179 32 573 27 1544 -4 802 -8 1021
-20 1123 -35 288 -93 501 -192 698 -31 62 -61 117 -66 124 -5 6 -24 34 -42 61
-17 28 -36 55 -42 61 -5 6 -17 22 -25 35 -19 30 -243 259 -253 259 -4 0 -18
10 -31 23 -31 30 -65 57 -71 57 -5 0 -37 25 -60 48 -8 6 -18 12 -24 12 -6 0
-11 5 -11 10 0 6 -7 10 -15 10 -8 0 -15 5 -15 10 0 6 -7 10 -15 10 -8 0 -15 5
-15 10 0 6 -7 10 -15 10 -8 0 -15 5 -15 10 0 6 -7 10 -15 10 -8 0 -15 5 -15
10 0 6 -7 10 -15 10 -8 0 -15 5 -15 10 0 6 -7 10 -15 10 -8 0 -15 5 -15 10 0
6 -7 10 -15 10 -8 0 -15 4 -15 8 0 5 -16 14 -35 22 -19 8 -35 17 -35 22 0 4
-7 8 -15 8 -8 0 -15 5 -15 10 0 6 -7 10 -15 10 -8 0 -15 5 -15 10 0 6 -9 10
-20 10 -11 0 -20 5 -20 10 0 6 -7 10 -15 10 -8 0 -15 5 -15 10 0 6 -7 10 -15
10 -8 0 -15 5 -15 10 0 6 -9 10 -20 10 -11 0 -20 5 -20 10 0 6 -7 10 -15 10
-8 0 -15 5 -15 10 0 6 -9 10 -20 10 -11 0 -20 5 -20 10 0 6 -7 10 -15 10 -8 0
-15 5 -15 10 0 6 -9 10 -20 10 -11 0 -20 5 -20 10 0 6 -7 10 -15 10 -8 0 -15
4 -15 8 0 5 -16 14 -35 22 -19 8 -35 17 -35 22 0 4 -7 8 -15 8 -8 0 -15 5 -15
10 0 6 -9 10 -20 10 -11 0 -20 5 -20 10 0 6 -7 10 -15 10 -8 0 -15 5 -15 10 0
6 -9 10 -20 10 -11 0 -20 5 -20 10 0 6 -7 10 -15 10 -8 0 -15 5 -15 10 0 6 -9
10 -20 10 -11 0 -20 5 -20 10 0 6 -7 10 -15 10 -8 0 -15 5 -15 10 0 6 -9 10
-20 10 -11 0 -20 5 -20 10 0 6 -7 10 -15 10 -8 0 -15 5 -15 10 0 6 -9 10 -20
10 -11 0 -20 5 -20 10 0 6 -7 10 -15 10 -8 0 -15 5 -15 10 0 6 -7 10 -15 10
-8 0 -15 5 -15 10 0 6 -9 10 -20 10 -11 0 -20 5 -20 10 0 6 -7 10 -15 10 -8 0
-15 5 -15 10 0 6 -9 10 -20 10 -11 0 -20 5 -20 10 0 6 -7 10 -15 10 -8 0 -15
5 -15 10 0 6 -9 10 -20 10 -11 0 -20 5 -20 10 0 6 -7 10 -15 10 -8 0 -15 5
-15 10 0 6 -9 10 -20 10 -11 0 -20 5 -20 10 0 6 -7 10 -15 10 -8 0 -15 5 -15
10 0 6 -9 10 -20 10 -11 0 -20 5 -20 10 0 6 -7 10 -15 10 -8 0 -15 5 -15 10 0
6 -9 10 -20 10 -11 0 -20 5 -20 10 0 6 -7 10 -15 10 -8 0 -15 4 -15 8 0 5 -16
14 -35 22 -19 8 -35 17 -35 22 0 4 -7 8 -15 8 -8 0 -15 5 -15 10 0 6 -9 10
-20 10 -11 0 -20 5 -20 10 0 6 -7 10 -15 10 -8 0 -15 5 -15 10 0 6 -9 10 -20
10 -11 0 -20 5 -20 10 0 6 -7 10 -15 10 -8 0 -15 5 -15 10 0 6 -9 10 -20 10
-11 0 -20 4 -20 8 0 5 -16 14 -35 22 -19 8 -35 17 -35 22 0 4 -9 8 -20 8 -11
0 -20 5 -20 10 0 6 -7 10 -15 10 -8 0 -15 5 -15 10 0 6 -9 10 -20 10 -11 0
-20 5 -20 10 0 6 -9 10 -20 10 -11 0 -20 5 -20 10 0 6 -9 10 -20 10 -11 0 -20
5 -20 10 0 6 -9 10 -20 10 -11 0 -20 5 -20 10 0 6 -9 10 -20 10 -11 0 -20 5
-20 10 0 6 -9 10 -20 10 -11 0 -20 5 -20 10 0 6 -9 10 -20 10 -11 0 -20 5 -20
10 0 6 -11 10 -25 10 -14 0 -25 5 -25 10 0 6 -9 10 -19 10 -11 0 -23 5 -26 10
-3 6 -15 10 -26 10 -10 0 -19 5 -19 10 0 6 -11 10 -24 10 -14 0 -28 5 -31 10
-3 6 -17 10 -30 10 -13 0 -27 5 -30 10 -3 6 -17 10 -30 10 -13 0 -27 5 -30 10
-3 6 -21 10 -40 10 -19 0 -37 5 -40 10 -3 6 -21 10 -40 10 -19 0 -37 5 -40 10
-3 6 -30 10 -60 10 -30 0 -57 5 -60 10 -4 6 -77 10 -186 10 -113 0 -179 -4
-179 -10z m390 -396 c88 -18 209 -55 283 -88 75 -33 2508 -1439 2587 -1494
223 -158 379 -409 453 -727 21 -89 21 -110 25 -1525 2 -962 0 -1472 -8 -1546
-25 -271 -125 -490 -312 -689 -121 -128 -193 -180 -497 -355 l-263 -152 -31
29 c-17 15 -37 34 -45 41 -18 16 -119 62 -137 62 -7 0 -17 5 -20 10 -3 6 -15
10 -26 10 -10 0 -19 3 -19 8 1 4 133 84 296 177 399 230 406 235 514 345 111
113 174 212 222 350 l33 95 0 1535 0 1535 -28 90 c-60 195 -151 339 -282 446
-98 79 -2509 1471 -2625 1515 -137 52 -232 67 -384 61 -139 -5 -221 -24 -320
-74 -27 -14 -223 -125 -435 -248 -1021 -589 -1041 -601 -1250 -769 -489 -392
-871 -950 -1052 -1537 -68 -220 -113 -431 -141 -664 -16 -134 -16 -552 0 -690
80 -675 331 -1255 776 -1790 l65 -78 -52 -26 c-29 -14 -53 -29 -55 -33 -2 -5
-9 -8 -16 -8 -15 0 -96 -79 -96 -93 0 -17 -39 24 -135 143 -880 1093 -1038
2576 -409 3832 276 551 698 1026 1208 1363 134 88 1391 814 1490 861 88 41
228 81 326 93 93 12 261 5 360 -15z m-2123 -1948 c662 -149 1385 -426 2318
-889 l279 -139 19 23 c16 20 16 25 5 34 -8 5 -69 58 -135 117 -119 106 -120
109 -163 205 -55 126 -92 231 -87 252 4 22 60 -65 130 -204 53 -107 57 -111
132 -163 42 -30 78 -52 80 -50 2 2 -10 25 -27 51 l-31 48 12 202 c12 209 18
257 31 257 14 0 21 -64 26 -255 l6 -190 76 -72 c42 -39 78 -71 79 -69 2 1 -2
63 -8 137 l-11 134 62 140 c66 151 106 225 120 225 15 0 -18 -113 -70 -240
l-51 -125 43 -141 43 -142 61 -5 c73 -7 163 -37 215 -71 l37 -25 4 107 c4 120
21 171 79 237 38 43 119 85 165 85 22 0 34 7 44 25 14 26 83 65 116 65 35 -1
101 -37 123 -69 13 -17 26 -52 29 -78 l7 -47 44 50 c24 27 62 76 85 109 39 57
41 64 40 130 -1 39 -11 112 -24 163 -16 69 -19 97 -11 105 18 18 30 -3 53 -89
14 -51 22 -112 22 -170 l1 -91 -46 -69 c-25 -38 -67 -93 -92 -123 l-46 -54 45
-50 c46 -52 127 -205 139 -265 6 -30 10 -33 33 -28 149 31 262 33 321 4 44
-21 231 -191 231 -210 0 -5 -7 -11 -15 -15 -11 -4 -42 19 -93 69 -89 86 -130
116 -174 128 -29 9 -181 -1 -252 -16 l-29 -6 32 -20 c39 -25 71 -85 71 -134 0
-76 -60 -144 -128 -144 -23 0 -36 -8 -52 -30 -28 -39 -93 -77 -157 -90 -86
-19 -207 16 -300 86 -38 29 -43 30 -36 5 10 -39 -17 -166 -50 -231 l-33 -65
96 -112 c89 -104 98 -112 140 -118 89 -14 282 -56 306 -67 75 -35 -17 -34
-258 2 l-128 20 -107 80 c-58 44 -107 79 -109 78 -2 -3 35 -200 39 -204 1 -1
70 -47 152 -102 317 -211 277 -228 -70 -30 -125 71 -131 76 -157 129 l-27 54
0 -96 -1 -97 56 -88 c59 -94 124 -216 124 -234 0 -25 -23 -5 -78 68 -32 42
-81 111 -109 152 l-50 75 -28 173 -28 172 -28 0 c-33 0 -28 21 -59 -300 -68
-710 -154 -1257 -276 -1762 -49 -203 -60 -224 -138 -267 -47 -27 -145 -29
-182 -4 -23 15 -94 102 -134 164 -26 40 -92 99 -111 99 -10 0 -21 5 -24 10 -3
6 -23 10 -45 10 l-38 0 -7 61 c-9 74 1 271 21 429 18 139 45 261 81 355 24 65
36 80 163 205 75 74 149 156 164 182 15 25 62 138 105 250 43 111 115 294 160
406 45 111 81 204 81 207 0 3 -19 17 -42 31 -23 15 -66 51 -95 80 -46 46 -52
49 -46 26 5 -15 8 -58 7 -97 -2 -205 -184 -379 -715 -681 -365 -208 -644 -309
-1184 -429 -209 -46 -652 -125 -706 -125 l-30 0 21 28 c142 180 580 639 788
825 222 198 375 309 603 435 457 252 685 338 874 330 101 -4 153 -24 223 -84
l42 -35 -16 43 c-9 24 -18 80 -21 126 -3 45 -10 82 -14 82 -13 0 -702 127
-787 145 -101 21 -182 18 -287 -10 -199 -55 -237 -60 -322 -48 -193 29 -547
190 -756 346 -93 69 -482 453 -574 567 -71 88 -141 195 -149 226 -3 13 -3 28
1 35 13 20 179 4 352 -35z"/>
<path d="M7320 5140 c0 -5 9 -10 20 -10 11 0 20 5 20 10 0 6 -9 10 -20 10 -11
0 -20 -4 -20 -10z"/>
<path d="M7370 5140 c0 -5 11 -10 25 -10 14 0 25 -4 25 -10 0 -5 -11 -10 -25
-10 -14 0 -25 -4 -25 -10 0 -5 11 -10 25 -10 14 0 25 -4 25 -10 0 -5 -11 -10
-25 -10 -14 0 -25 -4 -25 -10 0 -6 30 -10 70 -10 56 0 70 3 70 15 0 8 -6 15
-12 15 -9 0 -8 4 2 10 13 9 13 11 0 21 -11 8 -12 12 -2 16 31 13 6 23 -58 23
-40 0 -70 -4 -70 -10z"/>
<path d="M7520 5140 c0 -5 9 -10 20 -10 11 0 20 5 20 10 0 6 -9 10 -20 10 -11
0 -20 -4 -20 -10z"/>
<path d="M7570 5140 c0 -5 7 -10 15 -10 8 0 15 5 15 10 0 6 -7 10 -15 10 -8 0
-15 -4 -15 -10z"/>
<path d="M7320 5100 c0 -5 9 -10 20 -10 11 0 20 5 20 10 0 6 -9 10 -20 10 -11
0 -20 -4 -20 -10z"/>
<path d="M7520 5100 c0 -5 9 -10 20 -10 11 0 20 5 20 10 0 6 -9 10 -20 10 -11
0 -20 -4 -20 -10z"/>
<path d="M7570 5100 c0 -5 7 -10 15 -10 8 0 15 5 15 10 0 6 -7 10 -15 10 -8 0
-15 -4 -15 -10z"/>
<path d="M5957 5073 c-4 -3 -7 -15 -7 -25 0 -13 7 -18 25 -18 20 0 25 5 25 25
0 18 -5 25 -18 25 -10 0 -22 -3 -25 -7z"/>
<path d="M7520 5066 c0 -10 9 -16 21 -16 24 0 21 23 -4 28 -10 2 -17 -3 -17
-12z"/>
<path d="M6202 5053 c2 -10 10 -18 18 -18 8 0 16 8 18 18 2 12 -3 17 -18 17
-15 0 -20 -5 -18 -17z"/>
<path d="M7320 5060 c0 -5 9 -10 20 -10 11 0 20 5 20 10 0 6 -9 10 -20 10 -11
0 -20 -4 -20 -10z"/>
<path d="M7570 5060 c0 -5 7 -10 15 -10 8 0 15 5 15 10 0 6 -7 10 -15 10 -8 0
-15 -4 -15 -10z"/>
<path d="M6797 5033 c-4 -3 -7 -28 -7 -55 0 -36 4 -48 15 -48 12 0 15 13 15
55 0 51 -7 65 -23 48z"/>
<path d="M6850 4985 l0 -55 105 0 105 0 0 55 0 55 -105 0 -105 0 0 -55z"/>
<path d="M7090 4986 c0 -44 3 -56 16 -56 12 0 14 10 12 52 -4 74 -28 77 -28 4z"/>
<path d="M7320 5030 c0 -5 9 -10 20 -10 11 0 20 5 20 10 0 6 -9 10 -20 10 -11
0 -20 -4 -20 -10z"/>
<path d="M7370 5030 c0 -6 30 -10 70 -10 40 0 70 4 70 10 0 6 -30 10 -70 10
-40 0 -70 -4 -70 -10z"/>
<path d="M7520 5030 c0 -5 9 -10 20 -10 11 0 20 5 20 10 0 6 -9 10 -20 10 -11
0 -20 -4 -20 -10z"/>
<path d="M7570 5030 c0 -5 7 -10 15 -10 8 0 15 5 15 10 0 6 -7 10 -15 10 -8 0
-15 -4 -15 -10z"/>
<path d="M5952 4995 c2 -14 8 -26 13 -26 6 0 11 12 13 26 2 18 -1 25 -13 25
-12 0 -15 -7 -13 -25z"/>
<path d="M6227 4990 c-3 -11 -1 -20 4 -20 5 0 9 9 9 20 0 11 -2 20 -4 20 -2 0
-6 -9 -9 -20z"/>
<path d="M7328 5003 c6 -2 18 -2 25 0 6 3 1 5 -13 5 -14 0 -19 -2 -12 -5z"/>
<path d="M7403 5003 c20 -2 54 -2 75 0 20 2 3 4 -38 4 -41 0 -58 -2 -37 -4z"/>
<path d="M7528 5003 c6 -2 18 -2 25 0 6 3 1 5 -13 5 -14 0 -19 -2 -12 -5z"/>
<path d="M7578 5003 c7 -3 16 -2 19 1 4 3 -2 6 -13 5 -11 0 -14 -3 -6 -6z"/>
<path d="M7320 4980 c0 -5 9 -10 20 -10 11 0 20 5 20 10 0 6 -9 10 -20 10 -11
0 -20 -4 -20 -10z"/>
<path d="M7370 4980 c0 -6 30 -10 70 -10 40 0 70 4 70 10 0 6 -30 10 -70 10
-40 0 -70 -4 -70 -10z"/>
<path d="M7520 4980 c0 -5 9 -10 20 -10 11 0 20 5 20 10 0 6 -9 10 -20 10 -11
0 -20 -4 -20 -10z"/>
<path d="M7570 4980 c0 -5 7 -10 15 -10 8 0 15 5 15 10 0 6 -7 10 -15 10 -8 0
-15 -4 -15 -10z"/>
<path d="M7328 4953 c6 -2 18 -2 25 0 6 3 1 5 -13 5 -14 0 -19 -2 -12 -5z"/>
<path d="M7403 4953 c20 -2 54 -2 75 0 20 2 3 4 -38 4 -41 0 -58 -2 -37 -4z"/>
<path d="M7528 4953 c6 -2 18 -2 25 0 6 3 1 5 -13 5 -14 0 -19 -2 -12 -5z"/>
<path d="M7578 4953 c7 -3 16 -2 19 1 4 3 -2 6 -13 5 -11 0 -14 -3 -6 -6z"/>
<path d="M5950 4925 c0 -16 6 -25 15 -25 9 0 15 9 15 25 0 16 -6 25 -15 25 -9
0 -15 -9 -15 -25z"/>
<path d="M6220 4931 c0 -11 5 -23 10 -26 6 -4 10 5 10 19 0 14 -4 26 -10 26
-5 0 -10 -9 -10 -19z"/>
<path d="M7320 4930 c0 -5 9 -10 20 -10 11 0 20 5 20 10 0 6 -9 10 -20 10 -11
0 -20 -4 -20 -10z"/>
<path d="M7370 4930 c0 -6 30 -10 70 -10 40 0 70 4 70 10 0 6 -30 10 -70 10
-40 0 -70 -4 -70 -10z"/>
<path d="M7520 4930 c0 -5 9 -10 20 -10 11 0 20 5 20 10 0 6 -9 10 -20 10 -11
0 -20 -4 -20 -10z"/>
<path d="M7570 4930 c0 -5 7 -10 15 -10 8 0 15 5 15 10 0 6 -7 10 -15 10 -8 0
-15 -4 -15 -10z"/>
<path d="M7328 4903 c6 -2 18 -2 25 0 6 3 1 5 -13 5 -14 0 -19 -2 -12 -5z"/>
<path d="M7403 4903 c20 -2 54 -2 75 0 20 2 3 4 -38 4 -41 0 -58 -2 -37 -4z"/>
<path d="M7528 4903 c6 -2 18 -2 25 0 6 3 1 5 -13 5 -14 0 -19 -2 -12 -5z"/>
<path d="M5952 4865 c2 -14 8 -26 13 -26 6 0 11 12 13 26 2 18 -1 25 -13 25
-12 0 -15 -7 -13 -25z"/>
<path d="M7328 4883 c6 -2 18 -2 25 0 6 3 1 5 -13 5 -14 0 -19 -2 -12 -5z"/>
<path d="M7393 4883 c15 -2 27 -8 27 -13 0 -5 -12 -11 -27 -13 -16 -2 6 -5 47
-5 52 -1 70 1 60 8 -13 9 -13 11 0 20 10 7 -8 9 -60 8 -41 0 -63 -3 -47 -5z"/>
<path d="M6220 4860 c0 -11 5 -20 10 -20 6 0 10 9 10 20 0 11 -4 20 -10 20 -5
0 -10 -9 -10 -20z"/>
<path d="M5690 4855 c0 -8 5 -15 10 -15 6 0 10 7 10 15 0 8 -4 15 -10 15 -5 0
-10 -7 -10 -15z"/>
<path d="M5720 4855 c0 -8 5 -15 10 -15 6 0 10 7 10 15 0 8 -4 15 -10 15 -5 0
-10 -7 -10 -15z"/>
<path d="M5750 4855 c0 -8 5 -15 10 -15 6 0 10 7 10 15 0 8 -4 15 -10 15 -5 0
-10 -7 -10 -15z"/>
<path d="M5780 4855 c0 -8 5 -15 10 -15 6 0 10 7 10 15 0 8 -4 15 -10 15 -5 0
-10 -7 -10 -15z"/>
<path d="M5810 4850 c0 -11 5 -20 10 -20 6 0 10 9 10 20 0 11 -4 20 -10 20 -5
0 -10 -9 -10 -20z"/>
<path d="M5840 4850 c0 -11 5 -20 10 -20 6 0 10 9 10 20 0 11 -4 20 -10 20 -5
0 -10 -9 -10 -20z"/>
<path d="M5870 4850 c0 -11 5 -20 10 -20 6 0 10 9 10 20 0 11 -4 20 -10 20 -5
0 -10 -9 -10 -20z"/>
<path d="M5900 4850 c0 -11 5 -20 10 -20 6 0 10 9 10 20 0 11 -4 20 -10 20 -5
0 -10 -9 -10 -20z"/>
<path d="M7328 4853 c6 -2 18 -2 25 0 6 3 1 5 -13 5 -14 0 -19 -2 -12 -5z"/>
<path d="M7328 4833 c6 -2 18 -2 25 0 6 3 1 5 -13 5 -14 0 -19 -2 -12 -5z"/>
<path d="M7393 4833 c15 -2 27 -8 27 -13 0 -5 -12 -11 -27 -13 -16 -2 6 -5 47
-5 52 -1 70 1 60 8 -13 9 -13 11 0 20 10 7 -8 9 -60 8 -41 0 -63 -3 -47 -5z"/>
<path d="M5690 4810 c0 -5 5 -10 10 -10 6 0 10 5 10 10 0 6 -4 10 -10 10 -5 0
-10 -4 -10 -10z"/>
<path d="M5720 4810 c0 -5 5 -10 10 -10 6 0 10 5 10 10 0 6 -4 10 -10 10 -5 0
-10 -4 -10 -10z"/>
<path d="M5750 4810 c0 -5 5 -10 10 -10 6 0 10 5 10 10 0 6 -4 10 -10 10 -5 0
-10 -4 -10 -10z"/>
<path d="M5780 4810 c0 -5 5 -10 10 -10 6 0 10 5 10 10 0 6 -4 10 -10 10 -5 0
-10 -4 -10 -10z"/>
<path d="M5810 4810 c0 -5 5 -10 10 -10 6 0 10 5 10 10 0 6 -4 10 -10 10 -5 0
-10 -4 -10 -10z"/>
<path d="M5840 4810 c0 -5 5 -10 10 -10 6 0 10 5 10 10 0 6 -4 10 -10 10 -5 0
-10 -4 -10 -10z"/>
<path d="M5870 4810 c0 -5 5 -10 10 -10 6 0 10 5 10 10 0 6 -4 10 -10 10 -5 0
-10 -4 -10 -10z"/>
<path d="M5900 4810 c0 -5 5 -10 10 -10 6 0 10 5 10 10 0 6 -4 10 -10 10 -5 0
-10 -4 -10 -10z"/>
<path d="M5950 4795 c0 -16 6 -25 15 -25 9 0 15 9 15 25 0 16 -6 25 -15 25 -9
0 -15 -9 -15 -25z"/>
<path d="M6220 4795 c0 -14 5 -25 10 -25 6 0 10 11 10 25 0 14 -4 25 -10 25
-5 0 -10 -11 -10 -25z"/>
<path d="M3621 4794 c0 -11 3 -14 6 -6 3 7 2 16 -1 19 -3 4 -6 -2 -5 -13z"/>
<path d="M3641 4794 c0 -11 3 -14 6 -6 3 7 2 16 -1 19 -3 4 -6 -2 -5 -13z"/>
<path d="M3678 4803 c-32 -8 -19 -20 22 -20 22 0 40 4 40 9 0 4 -4 8 -9 8 -5
0 -15 2 -23 4 -7 2 -21 2 -30 -1z"/>
<path d="M3751 4794 c0 -11 3 -14 6 -6 3 7 2 16 -1 19 -3 4 -6 -2 -5 -13z"/>
<path d="M3771 4794 c0 -11 3 -14 6 -6 3 7 2 16 -1 19 -3 4 -6 -2 -5 -13z"/>
<path d="M7328 4803 c6 -2 18 -2 25 0 6 3 1 5 -13 5 -14 0 -19 -2 -12 -5z"/>
<path d="M5690 4775 c0 -8 5 -15 10 -15 6 0 10 7 10 15 0 8 -4 15 -10 15 -5 0
-10 -7 -10 -15z"/>
<path d="M5720 4775 c0 -8 5 -15 10 -15 6 0 10 7 10 15 0 8 -4 15 -10 15 -5 0
-10 -7 -10 -15z"/>
<path d="M5750 4775 c0 -8 5 -15 10 -15 6 0 10 7 10 15 0 8 -4 15 -10 15 -5 0
-10 -7 -10 -15z"/>
<path d="M5780 4775 c0 -8 5 -15 10 -15 6 0 10 7 10 15 0 8 -4 15 -10 15 -5 0
-10 -7 -10 -15z"/>
<path d="M5810 4775 c0 -8 5 -15 10 -15 6 0 10 7 10 15 0 8 -4 15 -10 15 -5 0
-10 -7 -10 -15z"/>
<path d="M5840 4775 c0 -8 5 -15 10 -15 6 0 10 7 10 15 0 8 -4 15 -10 15 -5 0
-10 -7 -10 -15z"/>
<path d="M5870 4775 c0 -8 5 -15 10 -15 6 0 10 7 10 15 0 8 -4 15 -10 15 -5 0
-10 -7 -10 -15z"/>
<path d="M5900 4775 c0 -8 5 -15 10 -15 6 0 10 7 10 15 0 8 -4 15 -10 15 -5 0
-10 -7 -10 -15z"/>
<path d="M7328 4783 c6 -2 18 -2 25 0 6 3 1 5 -13 5 -14 0 -19 -2 -12 -5z"/>
<path d="M7393 4783 c15 -2 27 -8 27 -13 0 -5 -12 -11 -27 -13 -16 -2 6 -5 47
-5 52 -1 70 1 60 8 -13 9 -13 11 0 20 10 7 -8 9 -60 8 -41 0 -63 -3 -47 -5z"/>
<path d="M3580 4760 c0 -5 5 -10 10 -10 6 0 10 5 10 10 0 6 -4 10 -10 10 -5 0
-10 -4 -10 -10z"/>
<path d="M3690 4760 c0 -5 5 -10 10 -10 6 0 10 5 10 10 0 6 -4 10 -10 10 -5 0
-10 -4 -10 -10z"/>
<path d="M5954 4746 c-10 -26 4 -46 31 -46 14 0 25 5 25 10 0 6 -7 10 -15 10
-8 0 -15 6 -15 14 0 22 -19 30 -26 12z"/>
<path d="M6227 4753 c-11 -10 -8 -43 3 -43 6 0 10 11 10 25 0 26 -2 29 -13 18z"/>
<path d="M7328 4753 c6 -2 18 -2 25 0 6 3 1 5 -13 5 -14 0 -19 -2 -12 -5z"/>
<path d="M3698 4733 c7 -3 16 -2 19 1 4 3 -2 6 -13 5 -11 0 -14 -3 -6 -6z"/>
<path d="M7328 4733 c6 -2 18 -2 25 0 6 3 1 5 -13 5 -14 0 -19 -2 -12 -5z"/>
<path d="M7403 4733 c20 -2 54 -2 75 0 20 2 3 4 -38 4 -41 0 -58 -2 -37 -4z"/>
<path d="M4990 4709 c0 -5 5 -7 10 -4 6 3 10 8 10 11 0 2 -4 4 -10 4 -5 0 -10
-5 -10 -11z"/>
<path d="M6030 4710 c0 -5 14 -10 30 -10 17 0 30 5 30 10 0 6 -13 10 -30 10
-16 0 -30 -4 -30 -10z"/>
<path d="M6110 4710 c0 -5 14 -10 30 -10 17 0 30 5 30 10 0 6 -13 10 -30 10
-16 0 -30 -4 -30 -10z"/>
<path d="M7320 4710 c0 -5 9 -10 20 -10 11 0 20 5 20 10 0 6 -9 10 -20 10 -11
0 -20 -4 -20 -10z"/>
<path d="M7370 4710 c0 -6 30 -10 70 -10 40 0 70 4 70 10 0 6 -30 10 -70 10
-40 0 -70 -4 -70 -10z"/>
<path d="M7520 4710 c0 -5 9 -10 20 -10 11 0 20 5 20 10 0 6 -9 10 -20 10 -11
0 -20 -4 -20 -10z"/>
<path d="M5950 4671 c0 -28 20 -37 27 -13 3 12 12 23 22 25 9 3 1 5 -16 6 -26
1 -33 -3 -33 -18z"/>
<path d="M6043 4683 c9 -2 25 -2 35 0 9 3 1 5 -18 5 -19 0 -27 -2 -17 -5z"/>
<path d="M6123 4683 c9 -2 25 -2 35 0 9 3 1 5 -18 5 -19 0 -27 -2 -17 -5z"/>
<path d="M6203 4683 c9 -2 17 -11 17 -18 0 -8 5 -17 10 -20 6 -4 10 5 10 19 0
22 -4 26 -27 25 -17 -1 -21 -3 -10 -6z"/>
<path d="M7328 4683 c6 -2 18 -2 25 0 6 3 1 5 -13 5 -14 0 -19 -2 -12 -5z"/>
<path d="M7403 4683 c20 -2 54 -2 75 0 20 2 3 4 -38 4 -41 0 -58 -2 -37 -4z"/>
<path d="M4990 4670 c0 -5 5 -10 11 -10 5 0 7 5 4 10 -3 6 -8 10 -11 10 -2 0
-4 -4 -4 -10z"/>
<path d="M6290 4660 c0 -19 7 -20 240 -20 233 0 240 1 240 20 0 19 -7 20 -240
20 -233 0 -240 -1 -240 -20z"/>
<path d="M7320 4660 c0 -5 9 -10 20 -10 11 0 20 5 20 10 0 6 -9 10 -20 10 -11
0 -20 -4 -20 -10z"/>
<path d="M7370 4660 c0 -6 30 -10 70 -10 40 0 70 4 70 10 0 6 -30 10 -70 10
-40 0 -70 -4 -70 -10z"/>
<path d="M7520 4660 c0 -5 9 -10 20 -10 11 0 20 5 20 10 0 6 -9 10 -20 10 -11
0 -20 -4 -20 -10z"/>
<path d="M7328 4633 c6 -2 18 -2 25 0 6 3 1 5 -13 5 -14 0 -19 -2 -12 -5z"/>
<path d="M7403 4633 c20 -2 54 -2 75 0 20 2 3 4 -38 4 -41 0 -58 -2 -37 -4z"/>
<path d="M4990 4619 c0 -5 5 -7 10 -4 6 3 10 8 10 11 0 2 -4 4 -10 4 -5 0 -10
-5 -10 -11z"/>
<path d="M5956 4623 c-12 -12 -6 -43 9 -43 8 0 15 9 15 19 0 21 -13 34 -24 24z"/>
<path d="M6227 4623 c-11 -10 -8 -43 3 -43 6 0 10 11 10 25 0 26 -2 29 -13 18z"/>
<path d="M7320 4610 c0 -5 9 -10 20 -10 11 0 20 5 20 10 0 6 -9 10 -20 10 -11
0 -20 -4 -20 -10z"/>
<path d="M7370 4610 c0 -6 30 -10 70 -10 40 0 70 4 70 10 0 6 -30 10 -70 10
-40 0 -70 -4 -70 -10z"/>
<path d="M7520 4610 c0 -13 11 -13 30 0 12 8 11 10 -7 10 -13 0 -23 -4 -23
-10z"/>
<path d="M4990 4580 c0 -5 5 -10 11 -10 5 0 7 5 4 10 -3 6 -8 10 -11 10 -2 0
-4 -4 -4 -10z"/>
<path d="M7328 4583 c6 -2 18 -2 25 0 6 3 1 5 -13 5 -14 0 -19 -2 -12 -5z"/>
<path d="M7403 4583 c20 -2 54 -2 75 0 20 2 3 4 -38 4 -41 0 -58 -2 -37 -4z"/>
<path d="M1939 4553 c-13 -16 -12 -17 4 -4 16 13 21 21 13 21 -2 0 -10 -8 -17
-17z"/>
<path d="M7328 4563 c6 -2 18 -2 25 0 6 3 1 5 -13 5 -14 0 -19 -2 -12 -5z"/>
<path d="M7393 4563 c15 -2 27 -8 27 -13 0 -5 -12 -11 -27 -13 -16 -2 6 -5 47
-5 52 -1 70 1 60 8 -13 9 -13 11 0 20 10 7 -8 9 -60 8 -41 0 -63 -3 -47 -5z"/>
<path d="M5952 4538 c2 -13 8 -23 13 -23 6 0 11 10 13 23 2 15 -2 22 -13 22
-11 0 -15 -7 -13 -22z"/>
<path d="M6220 4535 c0 -14 5 -25 10 -25 6 0 10 11 10 25 0 14 -4 25 -10 25
-5 0 -10 -11 -10 -25z"/>
<path d="M6291 4556 c2 -2 111 -7 242 -11 168 -5 237 -4 237 4 0 8 -74 11
-242 11 -133 0 -239 -2 -237 -4z"/>
<path d="M7328 4533 c6 -2 18 -2 25 0 6 3 1 5 -13 5 -14 0 -19 -2 -12 -5z"/>
<path d="M6420 4520 c-119 -5 -106 -6 108 -8 156 -1 242 2 242 8 0 11 -109 11
-350 0z"/>
<path d="M3798 4513 c7 -3 16 -2 19 1 4 3 -2 6 -13 5 -11 0 -14 -3 -6 -6z"/>
<path d="M7328 4513 c6 -2 18 -2 25 0 6 3 1 5 -13 5 -14 0 -19 -2 -12 -5z"/>
<path d="M7393 4513 c15 -2 27 -8 27 -13 0 -5 -12 -11 -27 -13 -16 -2 6 -5 47
-5 52 -1 70 1 60 8 -13 9 -13 11 0 20 10 7 -8 9 -60 8 -41 0 -63 -3 -47 -5z"/>
<path d="M5956 4493 c-12 -12 -6 -43 9 -43 8 0 15 9 15 19 0 21 -13 34 -24 24z"/>
<path d="M6220 4475 c0 -14 5 -25 10 -25 6 0 10 11 10 25 0 14 -4 25 -10 25
-5 0 -10 -11 -10 -25z"/>
<path d="M1960 4480 c10 -6 11 -10 3 -10 -7 0 -13 -7 -13 -15 0 -8 7 -15 15
-15 9 0 15 9 15 25 0 17 -5 25 -17 25 -15 0 -16 -2 -3 -10z"/>
<path d="M6408 4483 c67 -2 177 -2 245 0 67 1 12 3 -123 3 -135 0 -190 -2
-122 -3z"/>
<path d="M7328 4483 c6 -2 18 -2 25 0 6 3 1 5 -13 5 -14 0 -19 -2 -12 -5z"/>
<path d="M1911 4457 c-1 -19 3 -27 12 -25 6 3 12 13 13 24 1 17 1 17 -4 -1 -5
-18 -6 -18 -13 5 l-7 25 -1 -28z"/>
<path d="M2022 4445 c0 -16 2 -22 5 -12 2 9 2 23 0 30 -3 6 -5 -1 -5 -18z"/>
<path d="M5810 4460 c0 -5 5 -10 10 -10 6 0 10 5 10 10 0 6 -4 10 -10 10 -5 0
-10 -4 -10 -10z"/>
<path d="M5840 4460 c0 -5 5 -10 10 -10 6 0 10 5 10 10 0 6 -4 10 -10 10 -5 0
-10 -4 -10 -10z"/>
<path d="M5870 4460 c0 -5 5 -10 10 -10 6 0 10 5 10 10 0 6 -4 10 -10 10 -5 0
-10 -4 -10 -10z"/>
<path d="M5900 4460 c0 -5 5 -10 10 -10 6 0 10 5 10 10 0 6 -4 10 -10 10 -5 0
-10 -4 -10 -10z"/>
<path d="M7328 4463 c6 -2 18 -2 25 0 6 3 1 5 -13 5 -14 0 -19 -2 -12 -5z"/>
<path d="M7403 4463 c20 -2 54 -2 75 0 20 2 3 4 -38 4 -41 0 -58 -2 -37 -4z"/>
<path d="M9815 4450 c10 -50 25 -196 25 -247 l0 -53 34 0 c24 0 36 5 39 18 4
16 5 16 6 0 2 -27 61 -25 61 1 0 11 5 23 10 26 6 4 10 -5 10 -19 0 -22 5 -26
29 -26 20 0 31 6 34 18 4 16 5 15 6 -1 1 -15 8 -18 46 -16 24 2 47 0 51 -3 3
-4 7 -37 8 -75 l1 -68 43 -22 c28 -15 42 -18 43 -10 0 7 4 3 9 -8 5 -11 9
-108 10 -215 1 -107 4 -187 7 -177 2 9 10 17 18 17 24 0 84 71 96 113 7 25 9
84 6 147 -7 163 -70 316 -170 413 -49 48 -140 113 -187 134 -30 13 -85 27
-165 43 -33 7 -64 17 -68 24 -4 6 -5 0 -2 -14z"/>
<path d="M4990 4450 c0 -5 5 -10 11 -10 5 0 7 5 4 10 -3 6 -8 10 -11 10 -2 0
-4 -4 -4 -10z"/>
<path d="M6408 4453 c67 -2 177 -2 245 0 67 1 12 3 -123 3 -135 0 -190 -2
-122 -3z"/>
<path d="M1990 4440 c0 -5 5 -10 11 -10 5 0 7 5 4 10 -3 6 -8 10 -11 10 -2 0
-4 -4 -4 -10z"/>
<path d="M9727 4400 c-22 -27 -38 -51 -37 -55 1 -4 -7 -14 -17 -23 -10 -9 -19
-23 -21 -31 -5 -24 -90 -127 -133 -162 -23 -19 -47 -38 -53 -44 -30 -25 -62
-36 -122 -42 -35 -3 -64 -10 -64 -16 0 -5 7 -6 16 -3 10 4 13 2 8 -6 -5 -8 -2
-9 9 -5 10 3 17 2 17 -4 0 -6 5 -7 10 -4 6 3 10 2 10 -3 0 -5 23 -21 50 -36
76 -42 192 -138 241 -200 24 -30 47 -55 52 -55 4 -1 7 52 8 117 0 64 4 126 9
137 5 11 9 14 9 6 1 -11 4 -11 16 -1 12 10 15 40 15 149 0 75 5 175 11 224 6
48 9 91 7 96 -2 5 -20 -13 -41 -39z"/>
<path d="M7428 4433 c6 -2 18 -2 25 0 6 3 1 5 -13 5 -14 0 -19 -2 -12 -5z"/>
<path d="M5952 4408 c2 -17 11 -24 31 -26 15 -2 27 1 27 7 0 6 -7 11 -15 11
-8 0 -15 7 -15 15 0 8 -7 15 -16 15 -10 0 -14 -7 -12 -22z"/>
<path d="M6220 4415 c0 -8 -6 -15 -14 -15 -8 0 -18 -4 -21 -10 -4 -6 7 -10 24
-10 26 0 31 4 31 25 0 14 -4 25 -10 25 -5 0 -10 -7 -10 -15z"/>
<path d="M6400 4420 c-92 -5 -66 -6 128 -8 156 -1 242 2 242 8 0 11 -166 11
-370 0z"/>
<path d="M2757 4414 c-3 -5 1 -15 9 -22 16 -14 18 -5 5 17 -5 7 -11 9 -14 5z"/>
<path d="M7328 4413 c6 -2 18 -2 25 0 6 3 1 5 -13 5 -14 0 -19 -2 -12 -5z"/>
<path d="M7403 4413 c20 -2 54 -2 75 0 20 2 3 4 -38 4 -41 0 -58 -2 -37 -4z"/>
<path d="M9780 4410 c0 -5 4 -10 9 -10 6 0 13 5 16 10 3 6 -1 10 -9 10 -9 0
-16 -4 -16 -10z"/>
<path d="M2011 4143 l-1 -273 78 0 79 0 19 36 c35 66 109 84 162 39 16 -14 33
-36 36 -50 l6 -25 140 0 140 0 0 -140 c0 -87 4 -140 10 -140 6 0 10 118 10
335 0 326 1 335 20 335 14 0 22 11 30 40 6 22 8 45 5 50 -3 6 -1 10 4 10 6 0
11 4 11 10 0 20 -37 -7 -105 -76 -68 -69 -108 -94 -206 -128 -53 -19 -88 -20
-126 -5 -202 83 -241 110 -287 204 l-25 50 0 -272z"/>
<path d="M4990 4399 c0 -5 5 -7 10 -4 6 3 10 8 10 11 0 2 -4 4 -10 4 -5 0 -10
-5 -10 -11z"/>
<path d="M1890 4348 c-21 -93 -61 -271 -77 -341 -11 -47 -14 -97 -10 -165 6
-116 18 -162 56 -205 16 -17 31 -41 33 -52 2 -11 8 97 12 240 4 143 10 264 14
270 10 14 3 305 -8 305 -4 0 -13 -24 -20 -52z"/>
<path d="M3690 4390 c0 -5 5 -10 10 -10 6 0 10 5 10 10 0 6 -4 10 -10 10 -5 0
-10 -4 -10 -10z"/>
<path d="M6030 4390 c0 -5 14 -10 30 -10 17 0 30 5 30 10 0 6 -13 10 -30 10
-16 0 -30 -4 -30 -10z"/>
<path d="M6110 4390 c0 -5 14 -10 30 -10 17 0 30 5 30 10 0 6 -13 10 -30 10
-16 0 -30 -4 -30 -10z"/>
<path d="M7420 4390 c0 -5 9 -10 20 -10 11 0 20 5 20 10 0 6 -9 10 -20 10 -11
0 -20 -4 -20 -10z"/>
<path d="M7470 4390 c0 -5 5 -10 10 -10 6 0 10 5 10 10 0 6 -4 10 -10 10 -5 0
-10 -4 -10 -10z"/>
<path d="M6408 4383 c67 -2 177 -2 245 0 67 1 12 3 -123 3 -135 0 -190 -2
-122 -3z"/>
<path d="M1970 4355 c0 -8 5 -15 10 -15 6 0 10 7 10 15 0 8 -4 15 -10 15 -5 0
-10 -7 -10 -15z"/>
<path d="M3658 4363 c12 -2 30 -2 40 0 9 3 -1 5 -23 4 -22 0 -30 -2 -17 -4z"/>
<path d="M5957 4363 c-13 -12 -7 -43 8 -43 8 0 15 7 15 15 0 8 7 15 15 15 8 0
15 5 15 10 0 11 -43 14 -53 3z"/>
<path d="M6030 4360 c0 -5 14 -10 30 -10 17 0 30 5 30 10 0 6 -13 10 -30 10
-16 0 -30 -4 -30 -10z"/>
<path d="M6110 4360 c0 -5 14 -10 30 -10 17 0 30 5 30 10 0 6 -13 10 -30 10
-16 0 -30 -4 -30 -10z"/>
<path d="M6185 4360 c3 -5 13 -10 21 -10 8 0 14 -7 14 -15 0 -8 5 -15 10 -15
6 0 10 11 10 25 0 21 -5 25 -31 25 -17 0 -28 -4 -24 -10z"/>
<path d="M7328 4363 c6 -2 18 -2 25 0 6 3 1 5 -13 5 -14 0 -19 -2 -12 -5z"/>
<path d="M7403 4363 c20 -2 54 -2 75 0 20 2 3 4 -38 4 -41 0 -58 -2 -37 -4z"/>
<path d="M6408 4353 c67 -2 177 -2 245 0 67 1 12 3 -123 3 -135 0 -190 -2
-122 -3z"/>
<path d="M3640 4343 c0 -5 16 -9 35 -10 19 -1 35 3 35 8 0 5 -16 9 -35 9 -19
0 -35 -3 -35 -7z"/>
<path d="M7420 4340 c0 -5 9 -10 20 -10 11 0 20 5 20 10 0 6 -9 10 -20 10 -11
0 -20 -4 -20 -10z"/>
<path d="M7470 4340 c0 -5 5 -10 10 -10 6 0 10 5 10 10 0 6 -4 10 -10 10 -5 0
-10 -4 -10 -10z"/>
<path d="M9780 4320 c0 -20 5 -30 15 -30 10 0 15 10 15 30 0 20 -5 30 -15 30
-10 0 -15 -10 -15 -30z"/>
<path d="M6290 4320 c0 -6 87 -10 240 -10 153 0 240 4 240 10 0 6 -87 10 -240
10 -153 0 -240 -4 -240 -10z"/>
<path d="M2755 4307 c-4 -10 -5 -21 -1 -24 10 -10 18 4 13 24 -4 17 -4 17 -12
0z"/>
<path d="M3663 4313 c15 -2 39 -2 55 0 15 2 2 4 -28 4 -30 0 -43 -2 -27 -4z"/>
<path d="M7328 4313 c6 -2 18 -2 25 0 6 3 1 5 -13 5 -14 0 -19 -2 -12 -5z"/>
<path d="M7403 4313 c20 -2 54 -2 75 0 20 2 3 4 -38 4 -41 0 -58 -2 -37 -4z"/>
<path d="M3640 4292 c0 -10 86 -9 96 1 4 4 -16 7 -44 7 -29 0 -52 -3 -52 -8z"/>
<path d="M5952 4278 c2 -13 8 -23 13 -23 6 0 11 10 13 23 2 15 -2 22 -13 22
-11 0 -15 -7 -13 -22z"/>
<path d="M6220 4275 c0 -14 5 -25 10 -25 6 0 10 11 10 25 0 14 -4 25 -10 25
-5 0 -10 -11 -10 -25z"/>
<path d="M7428 4293 c6 -2 18 -2 25 0 6 3 1 5 -13 5 -14 0 -19 -2 -12 -5z"/>
<path d="M6408 4283 c67 -2 177 -2 245 0 67 1 12 3 -123 3 -135 0 -190 -2
-122 -3z"/>
<path d="M3663 4263 c15 -2 39 -2 55 0 15 2 2 4 -28 4 -30 0 -43 -2 -27 -4z"/>
<path d="M7328 4263 c6 -2 18 -2 25 0 6 3 1 5 -13 5 -14 0 -19 -2 -12 -5z"/>
<path d="M7398 4263 c17 -2 47 -2 65 0 17 2 3 4 -33 4 -36 0 -50 -2 -32 -4z"/>
<path d="M6408 4253 c67 -2 177 -2 245 0 67 1 12 3 -123 3 -135 0 -190 -2
-122 -3z"/>
<path d="M3622 4230 c0 -14 2 -19 5 -12 2 6 2 18 0 25 -3 6 -5 1 -5 -13z"/>
<path d="M3640 4230 c0 -17 7 -20 53 -20 37 0 48 3 37 10 -13 9 -13 11 0 20
11 7 0 10 -37 10 -46 0 -53 -3 -53 -20z m40 0 c0 -5 -7 -10 -15 -10 -8 0 -15
5 -15 10 0 6 7 10 15 10 8 0 15 -4 15 -10z"/>
<path d="M3752 4230 c0 -14 2 -19 5 -12 2 6 2 18 0 25 -3 6 -5 1 -5 -13z"/>
<path d="M3772 4230 c0 -14 2 -19 5 -12 2 6 2 18 0 25 -3 6 -5 1 -5 -13z"/>
<path d="M3792 4230 c0 -14 2 -19 5 -12 2 6 2 18 0 25 -3 6 -5 1 -5 -13z"/>
<path d="M7328 4243 c6 -2 18 -2 25 0 6 3 1 5 -13 5 -14 0 -19 -2 -12 -5z"/>
<path d="M7393 4243 c15 -2 37 -2 50 0 12 2 0 4 -28 4 -27 0 -38 -2 -22 -4z"/>
<path d="M9777 4243 c-4 -3 -7 -21 -7 -40 0 -26 4 -33 20 -33 17 0 20 7 20 40
0 38 -14 52 -33 33z m23 -28 c0 -8 -4 -15 -10 -15 -5 0 -7 7 -4 15 4 8 8 15
10 15 2 0 4 -7 4 -15z"/>
<path d="M2743 4224 c-6 -16 15 -37 29 -28 4 3 8 14 8 25 0 23 -28 26 -37 3z"/>
<path d="M4990 4230 c0 -5 5 -10 11 -10 5 0 7 5 4 10 -3 6 -8 10 -11 10 -2 0
-4 -4 -4 -10z"/>
<path d="M5950 4215 c0 -16 6 -25 15 -25 9 0 15 9 15 25 0 16 -6 25 -15 25 -9
0 -15 -9 -15 -25z"/>
<path d="M6220 4215 c0 -14 5 -25 10 -25 6 0 10 11 10 25 0 14 -4 25 -10 25
-5 0 -10 -11 -10 -25z"/>
<path d="M5810 4220 c0 -5 5 -10 10 -10 6 0 10 5 10 10 0 6 -4 10 -10 10 -5 0
-10 -4 -10 -10z"/>
<path d="M5840 4220 c0 -5 5 -10 10 -10 6 0 10 5 10 10 0 6 -4 10 -10 10 -5 0
-10 -4 -10 -10z"/>
<path d="M5870 4220 c0 -5 5 -10 10 -10 6 0 10 5 10 10 0 6 -4 10 -10 10 -5 0
-10 -4 -10 -10z"/>
<path d="M5900 4220 c0 -5 5 -10 10 -10 6 0 10 5 10 10 0 6 -4 10 -10 10 -5 0
-10 -4 -10 -10z"/>
<path d="M6290 4222 c0 -12 467 -15 475 -3 4 8 -68 11 -234 11 -133 0 -241 -4
-241 -8z"/>
<path d="M7328 4213 c6 -2 18 -2 25 0 6 3 1 5 -13 5 -14 0 -19 -2 -12 -5z"/>
<path d="M7428 4213 c6 -2 18 -2 25 0 6 3 1 5 -13 5 -14 0 -19 -2 -12 -5z"/>
<path d="M3622 4180 c0 -14 2 -19 5 -12 2 6 2 18 0 25 -3 6 -5 1 -5 -13z"/>
<path d="M3640 4180 c0 -17 7 -20 53 -20 37 0 48 3 37 10 -13 9 -13 11 0 20
11 7 0 10 -37 10 -46 0 -53 -3 -53 -20z m40 0 c0 -5 -7 -10 -15 -10 -8 0 -15
5 -15 10 0 6 7 10 15 10 8 0 15 -4 15 -10z"/>
<path d="M3752 4180 c0 -14 2 -19 5 -12 2 6 2 18 0 25 -3 6 -5 1 -5 -13z"/>
<path d="M3772 4180 c0 -14 2 -19 5 -12 2 6 2 18 0 25 -3 6 -5 1 -5 -13z"/>
<path d="M3792 4180 c0 -14 2 -19 5 -12 2 6 2 18 0 25 -3 6 -5 1 -5 -13z"/>
<path d="M6290 4189 c0 -5 106 -9 241 -9 162 0 238 3 234 10 -8 13 -475 12
-475 -1z"/>
<path d="M7328 4193 c7 -3 16 -2 19 1 4 3 -2 6 -13 5 -11 0 -14 -3 -6 -6z"/>
<path d="M7428 4193 c6 -2 18 -2 25 0 6 3 1 5 -13 5 -14 0 -19 -2 -12 -5z"/>
<path d="M4990 4179 c0 -5 5 -7 10 -4 6 3 10 8 10 11 0 2 -4 4 -10 4 -5 0 -10
-5 -10 -11z"/>
<path d="M5954 4166 c-8 -21 3 -49 16 -41 5 3 10 15 10 25 0 25 -18 36 -26 16z"/>
<path d="M6227 4173 c-11 -10 -8 -53 3 -53 6 0 10 14 10 30 0 31 -2 35 -13 23z"/>
<path d="M7428 4163 c6 -2 18 -2 25 0 6 3 1 5 -13 5 -14 0 -19 -2 -12 -5z"/>
<path d="M6408 4153 c67 -2 177 -2 245 0 67 1 12 3 -123 3 -135 0 -190 -2
-122 -3z"/>
<path d="M2750 4106 c0 -35 4 -46 16 -46 12 0 14 9 12 42 -4 59 -28 63 -28 4z"/>
<path d="M3663 4143 c15 -2 39 -2 55 0 15 2 2 4 -28 4 -30 0 -43 -2 -27 -4z"/>
<path d="M4990 4140 c0 -5 5 -10 11 -10 5 0 7 5 4 10 -3 6 -8 10 -11 10 -2 0
-4 -4 -4 -10z"/>
<path d="M7428 4143 c6 -2 18 -2 25 0 6 3 1 5 -13 5 -14 0 -19 -2 -12 -5z"/>
<path d="M9787 4133 c-11 -10 -8 -53 3 -53 6 0 10 14 10 30 0 31 -2 35 -13 23z"/>
<path d="M3640 4118 c0 -5 23 -8 52 -8 28 0 48 3 44 8 -10 9 -96 10 -96 0z"/>
<path d="M6290 4120 c0 -6 85 -10 234 -10 146 0 237 4 241 10 4 7 -77 10 -234
10 -154 0 -241 -4 -241 -10z"/>
<path d="M5950 4085 c0 -22 4 -25 33 -24 17 1 24 3 15 6 -10 2 -18 13 -18 24
0 10 -7 19 -15 19 -9 0 -15 -9 -15 -25z"/>
<path d="M6220 4091 c0 -12 -8 -21 -22 -24 -17 -3 -14 -5 10 -6 28 -1 32 2 32
24 0 14 -4 25 -10 25 -5 0 -10 -9 -10 -19z"/>
<path d="M3663 4093 c15 -2 39 -2 55 0 15 2 2 4 -28 4 -30 0 -43 -2 -27 -4z"/>
<path d="M4990 4089 c0 -5 5 -7 10 -4 6 3 10 8 10 11 0 2 -4 4 -10 4 -5 0 -10
-5 -10 -11z"/>
<path d="M5810 4090 c0 -5 5 -10 10 -10 6 0 10 5 10 10 0 6 -4 10 -10 10 -5 0
-10 -4 -10 -10z"/>
<path d="M5840 4090 c0 -5 5 -10 10 -10 6 0 10 5 10 10 0 6 -4 10 -10 10 -5 0
-10 -4 -10 -10z"/>
<path d="M5870 4090 c0 -5 5 -10 10 -10 6 0 10 5 10 10 0 6 -4 10 -10 10 -5 0
-10 -4 -10 -10z"/>
<path d="M5900 4090 c0 -5 5 -10 10 -10 6 0 10 5 10 10 0 6 -4 10 -10 10 -5 0
-10 -4 -10 -10z"/>
<path d="M6290 4090 c0 -6 87 -10 241 -10 157 0 238 3 234 10 -4 6 -95 10
-241 10 -149 0 -234 -4 -234 -10z"/>
<path d="M7428 4093 c6 -2 18 -2 25 0 6 3 1 5 -13 5 -14 0 -19 -2 -12 -5z"/>
<path d="M3640 4068 c0 -5 23 -8 52 -8 28 0 48 3 44 8 -10 9 -96 10 -96 0z"/>
<path d="M9128 4073 c7 -3 16 -2 19 1 4 3 -2 6 -13 5 -11 0 -14 -3 -6 -6z"/>
<path d="M6043 4063 c9 -2 25 -2 35 0 9 3 1 5 -18 5 -19 0 -27 -2 -17 -5z"/>
<path d="M6123 4063 c9 -2 25 -2 35 0 9 3 1 5 -18 5 -19 0 -27 -2 -17 -5z"/>
<path d="M8605 4054 c-49 -8 -117 -22 -150 -32 l-60 -18 -3 -112 -3 -112 586
0 c350 0 585 4 585 9 0 16 -80 80 -164 131 -82 51 -240 114 -263 106 -7 -3
-13 -1 -13 5 0 6 -8 9 -17 8 -10 -1 -26 2 -37 6 -11 5 -26 3 -37 -4 -15 -9
-19 -8 -17 1 4 16 -26 19 -192 23 -76 2 -160 -2 -215 -11z"/>
<path d="M9168 4063 c7 -3 16 -2 19 1 4 3 -2 6 -13 5 -11 0 -14 -3 -6 -6z"/>
<path d="M9200 4059 c0 -6 7 -9 15 -5 8 3 15 1 15 -3 0 -20 34 -21 52 -1 19
20 19 20 -32 20 -30 0 -50 -4 -50 -11z"/>
<path d="M6408 4053 c67 -2 177 -2 245 0 67 1 12 3 -123 3 -135 0 -190 -2
-122 -3z"/>
<path d="M3663 4043 c15 -2 39 -2 55 0 15 2 2 4 -28 4 -30 0 -43 -2 -27 -4z"/>
<path d="M5957 4043 c-11 -10 -8 -41 4 -48 6 -4 13 2 16 14 3 12 12 21 19 21
8 0 14 5 14 10 0 11 -43 14 -53 3z"/>
<path d="M6030 4040 c0 -5 14 -10 30 -10 17 0 30 5 30 10 0 6 -13 10 -30 10
-16 0 -30 -4 -30 -10z"/>
<path d="M6110 4040 c0 -5 14 -10 30 -10 17 0 30 5 30 10 0 6 -13 10 -30 10
-16 0 -30 -4 -30 -10z"/>
<path d="M6190 4040 c0 -5 7 -10 15 -10 8 0 15 -9 15 -20 0 -11 5 -20 10 -20
6 0 10 14 10 30 0 25 -4 30 -25 30 -14 0 -25 -4 -25 -10z"/>
<path d="M7428 4043 c6 -2 18 -2 25 0 6 3 1 5 -13 5 -14 0 -19 -2 -12 -5z"/>
<path d="M9970 3995 c0 -38 3 -45 20 -45 17 0 20 7 20 45 0 38 -3 45 -20 45
-17 0 -20 -7 -20 -45z"/>
<path d="M3680 4020 c0 -5 9 -10 20 -10 11 0 20 5 20 10 0 6 -9 10 -20 10 -11
0 -20 -4 -20 -10z"/>
<path d="M6290 4020 c0 -6 85 -10 234 -10 146 0 237 4 241 10 4 7 -77 10 -234
10 -154 0 -241 -4 -241 -10z"/>
<path d="M3663 3993 c15 -2 39 -2 55 0 15 2 2 4 -28 4 -30 0 -43 -2 -27 -4z"/>
<path d="M6290 3990 c0 -6 87 -10 241 -10 157 0 238 3 234 10 -4 6 -95 10
-241 10 -149 0 -234 -4 -234 -10z"/>
<path d="M3640 3972 c0 -10 86 -9 96 1 4 4 -16 7 -44 7 -29 0 -52 -3 -52 -8z"/>
<path d="M5950 3955 c0 -16 6 -25 15 -25 9 0 15 9 15 25 0 16 -6 25 -15 25 -9
0 -15 -9 -15 -25z"/>
<path d="M6220 3955 c0 -14 5 -25 10 -25 6 0 10 11 10 25 0 14 -4 25 -10 25
-5 0 -10 -11 -10 -25z"/>
<path d="M1941 3954 c0 -11 3 -14 6 -6 3 7 2 16 -1 19 -3 4 -6 -2 -5 -13z"/>
<path d="M2747 3953 c-4 -3 -7 -26 -7 -50 0 -36 3 -43 20 -43 17 0 20 7 20 50
0 35 -4 50 -13 50 -8 0 -17 -3 -20 -7z"/>
<path d="M6408 3953 c67 -2 177 -2 245 0 67 1 12 3 -123 3 -135 0 -190 -2
-122 -3z"/>
<path d="M3663 3943 c15 -2 39 -2 55 0 15 2 2 4 -28 4 -30 0 -43 -2 -27 -4z"/>
<path d="M3640 3922 c0 -10 86 -9 96 1 4 4 -16 7 -44 7 -29 0 -52 -3 -52 -8z"/>
<path d="M6290 3920 c0 -11 118 -11 335 -1 135 7 131 8 -97 9 -153 1 -238 -2
-238 -8z"/>
<path d="M7450 3910 c0 -16 7 -20 30 -20 23 0 30 4 30 20 0 16 -7 20 -30 20
-23 0 -30 -4 -30 -20z"/>
<path d="M7520 3910 c0 -11 5 -20 10 -20 6 0 10 9 10 20 0 11 -4 20 -10 20 -5
0 -10 -9 -10 -20z"/>
<path d="M5954 3906 c-8 -21 3 -49 16 -41 5 3 10 15 10 25 0 25 -18 36 -26 16z"/>
<path d="M6225 3908 c-4 -10 -4 -26 0 -35 8 -17 8 -17 12 0 3 9 3 25 0 35 -4
16 -4 16 -12 0z"/>
<path d="M7143 3870 c0 -30 2 -43 4 -27 2 15 2 39 0 55 -2 15 -4 2 -4 -28z"/>
<path d="M7258 3888 c-2 -13 -5 -71 -7 -130 -2 -95 -1 -108 14 -108 9 0 23 7
31 15 12 12 12 15 2 15 -10 0 -9 3 2 10 13 9 13 11 0 20 -13 9 -13 10 0 10 12
0 13 2 1 9 -11 7 -11 9 0 14 12 5 12 7 0 15 -11 8 -11 10 0 15 11 4 11 6 -1 6
-13 1 -13 2 0 11 13 9 13 11 0 20 -13 9 -13 10 0 10 12 0 13 2 1 9 -11 7 -11
9 0 14 10 4 9 6 -3 6 -13 1 -18 9 -18 31 0 35 -16 40 -22 8z"/>
<path d="M3663 3893 c15 -2 39 -2 55 0 15 2 2 4 -28 4 -30 0 -43 -2 -27 -4z"/>
<path d="M6290 3889 c0 -5 103 -9 238 -8 130 0 233 2 227 4 -25 8 -465 12
-465 4z"/>
<path d="M3622 3860 c0 -14 2 -19 5 -12 2 6 2 18 0 25 -3 6 -5 1 -5 -13z"/>
<path d="M3640 3860 c0 -17 7 -20 53 -20 37 0 48 3 37 10 -13 9 -13 11 0 20
11 7 0 10 -37 10 -46 0 -53 -3 -53 -20z m40 0 c0 -5 -7 -10 -15 -10 -8 0 -15
5 -15 10 0 6 7 10 15 10 8 0 15 -4 15 -10z"/>
<path d="M3752 3860 c0 -14 2 -19 5 -12 2 6 2 18 0 25 -3 6 -5 1 -5 -13z"/>
<path d="M3772 3860 c0 -14 2 -19 5 -12 2 6 2 18 0 25 -3 6 -5 1 -5 -13z"/>
<path d="M3792 3860 c0 -14 2 -19 5 -12 2 6 2 18 0 25 -3 6 -5 1 -5 -13z"/>
<path d="M7450 3860 c0 -16 7 -20 30 -20 23 0 30 4 30 20 0 16 -7 20 -30 20
-23 0 -30 -4 -30 -20z"/>
<path d="M7520 3860 c0 -11 5 -20 10 -20 6 0 10 9 10 20 0 11 -4 20 -10 20 -5
0 -10 -9 -10 -20z"/>
<path d="M6408 3853 c67 -2 177 -2 245 0 67 1 12 3 -123 3 -135 0 -190 -2
-122 -3z"/>
<path d="M7320 3850 c0 -5 5 -10 10 -10 6 0 10 5 10 10 0 6 -4 10 -10 10 -5 0
-10 -4 -10 -10z"/>
<path d="M5962 3825 c0 -16 2 -22 5 -12 2 9 2 23 0 30 -3 6 -5 -1 -5 -18z"/>
<path d="M6220 3825 c0 -14 5 -25 10 -25 6 0 10 11 10 25 0 14 -4 25 -10 25
-5 0 -10 -11 -10 -25z"/>
<path d="M2027 3824 c-13 -13 -7 -24 14 -24 11 0 19 5 17 12 -5 14 -22 21 -31
12z"/>
<path d="M2270 3816 c0 -9 7 -16 16 -16 9 0 14 5 12 12 -6 18 -28 21 -28 4z"/>
<path d="M2517 3823 c-12 -11 -8 -23 8 -23 8 0 15 7 15 15 0 16 -12 20 -23 8z"/>
<path d="M3622 3810 c0 -14 2 -19 5 -12 2 6 2 18 0 25 -3 6 -5 1 -5 -13z"/>
<path d="M3640 3810 c0 -17 7 -20 53 -20 37 0 48 3 37 10 -13 9 -13 11 0 20
11 7 0 10 -37 10 -46 0 -53 -3 -53 -20z m40 0 c0 -5 -7 -10 -15 -10 -8 0 -15
5 -15 10 0 6 7 10 15 10 8 0 15 -4 15 -10z"/>
<path d="M3752 3810 c0 -14 2 -19 5 -12 2 6 2 18 0 25 -3 6 -5 1 -5 -13z"/>
<path d="M3772 3810 c0 -14 2 -19 5 -12 2 6 2 18 0 25 -3 6 -5 1 -5 -13z"/>
<path d="M3792 3810 c0 -14 2 -19 5 -12 2 6 2 18 0 25 -3 6 -5 1 -5 -13z"/>
<path d="M6408 3823 c67 -2 177 -2 245 0 67 1 12 3 -123 3 -135 0 -190 -2
-122 -3z"/>
<path d="M7463 3823 c9 -2 25 -2 35 0 9 3 1 5 -18 5 -19 0 -27 -2 -17 -5z"/>
<path d="M7320 3800 c0 -5 5 -10 10 -10 6 0 10 5 10 10 0 6 -4 10 -10 10 -5 0
-10 -4 -10 -10z"/>
<path d="M7450 3800 c0 -5 14 -10 30 -10 17 0 30 5 30 10 0 6 -13 10 -30 10
-16 0 -30 -4 -30 -10z"/>
<path d="M7520 3800 c0 -5 5 -10 10 -10 6 0 10 5 10 10 0 6 -4 10 -10 10 -5 0
-10 -4 -10 -10z"/>
<path d="M3252 3771 c-4 -11 -31 -38 -59 -61 -29 -23 -53 -45 -53 -48 1 -4 9
-17 19 -29 15 -18 30 -23 70 -23 l51 0 0 80 c0 50 -4 80 -11 80 -5 0 -7 5 -4
10 3 6 4 10 0 10 -3 0 -9 -9 -13 -19z"/>
<path d="M6408 3783 c68 -2 176 -2 240 0 64 1 9 3 -123 3 -132 0 -185 -2 -117
-3z"/>
<path d="M1973 3768 c-5 -7 -8 -50 -5 -95 l4 -83 29 0 c29 0 29 0 29 64 0 35
3 71 6 79 6 16 -20 47 -40 47 -8 0 -18 -6 -23 -12z"/>
<path d="M2064 3772 c-7 -4 -12 -41 -13 -94 l-1 -88 29 0 28 0 5 83 c6 96 -8
125 -48 99z"/>
<path d="M2462 3768 c-5 -7 -10 -50 -11 -95 l-1 -83 35 0 35 0 -1 83 c-1 81
-9 107 -34 107 -7 0 -17 -6 -23 -12z"/>
<path d="M2542 3768 c-5 -8 -7 -48 -4 -95 l5 -83 28 0 29 0 -1 88 c-1 84 -7
101 -35 102 -6 0 -16 -6 -22 -12z"/>
<path d="M2836 3773 c-3 -4 -6 -47 -6 -96 l0 -90 42 7 c38 6 98 47 98 66 0 4
-30 30 -67 59 -37 28 -62 51 -57 51 6 0 15 -5 20 -10 7 -7 11 -7 11 3 0 13
-30 21 -41 10z"/>
<path d="M3230 3771 c0 -5 -11 -8 -25 -6 -20 2 -23 0 -14 -11 8 -10 8 -14 0
-14 -6 0 -11 -5 -11 -11 0 -5 13 -2 30 8 25 15 42 43 25 43 -3 0 -5 -4 -5 -9z"/>
<path d="M3663 3773 c15 -2 39 -2 55 0 15 2 2 4 -28 4 -30 0 -43 -2 -27 -4z"/>
<path d="M5961 3758 c-1 -23 3 -28 24 -28 14 0 25 5 25 10 0 6 -9 10 -19 10
-11 0 -22 8 -24 18 -3 10 -5 6 -6 -10z"/>
<path d="M6220 3765 c0 -8 -7 -15 -15 -15 -8 0 -15 -5 -15 -11 0 -6 10 -9 23
-7 22 3 39 48 18 48 -6 0 -11 -7 -11 -15z"/>
<path d="M7142 3750 c0 -19 2 -27 5 -17 2 9 2 25 0 35 -3 9 -5 1 -5 -18z"/>
<path d="M7328 3773 c7 -3 16 -2 19 1 4 3 -2 6 -13 5 -11 0 -14 -3 -6 -6z"/>
<path d="M7463 3773 c9 -2 25 -2 35 0 9 3 1 5 -18 5 -19 0 -27 -2 -17 -5z"/>
<path d="M4600 3760 c0 -5 5 -10 10 -10 6 0 10 5 10 10 0 6 -4 10 -10 10 -5 0
-10 -4 -10 -10z"/>
<path d="M4670 3760 c0 -5 5 -10 10 -10 6 0 10 5 10 10 0 6 -4 10 -10 10 -5 0
-10 -4 -10 -10z"/>
<path d="M4700 3760 c0 -5 5 -10 10 -10 6 0 10 5 10 10 0 6 -4 10 -10 10 -5 0
-10 -4 -10 -10z"/>
<path d="M4730 3760 c0 -5 5 -10 10 -10 6 0 10 5 10 10 0 6 -4 10 -10 10 -5 0
-10 -4 -10 -10z"/>
<path d="M2917 3746 c4 -5 -1 -7 -10 -3 -31 12 -18 -10 13 -23 17 -7 35 -20
40 -29 8 -13 9 -12 10 7 0 13 -4 20 -10 17 -5 -3 -10 2 -10 12 0 14 -2 15 -9
4 -5 -8 -11 -9 -15 -3 -4 6 2 15 11 21 16 9 16 10 -4 8 -12 0 -19 -5 -16 -11z"/>
<path d="M3161 3738 c0 -16 -6 -28 -12 -28 -5 0 -8 4 -5 8 3 5 -1 9 -9 9 -8 0
-15 -4 -15 -9 0 -4 5 -8 10 -8 6 0 2 -8 -7 -18 -17 -17 -18 -16 -24 8 -6 21
-7 19 -8 -13 -1 -35 0 -37 19 -27 11 6 17 16 14 22 -5 8 -1 9 12 4 10 -4 15
-4 11 0 -4 4 0 12 9 19 10 7 14 20 11 36 -4 23 -4 23 -6 -3z"/>
<path d="M3640 3748 c0 -5 23 -8 52 -8 28 0 48 3 44 8 -10 9 -96 10 -96 0z"/>
<path d="M7320 3750 c0 -5 5 -10 10 -10 6 0 10 5 10 10 0 6 -4 10 -10 10 -5 0
-10 -4 -10 -10z"/>
<path d="M7450 3750 c0 -5 14 -10 30 -10 17 0 30 5 30 10 0 6 -13 10 -30 10
-16 0 -30 -4 -30 -10z"/>
<path d="M7520 3750 c0 -5 5 -10 10 -10 6 0 10 5 10 10 0 6 -4 10 -10 10 -5 0
-10 -4 -10 -10z"/>
<path d="M8390 3696 l0 -63 188 -7 c103 -3 284 -9 402 -12 118 -4 280 -8 360
-11 l145 -4 58 56 c39 38 57 64 57 80 l0 25 -605 0 -605 0 0 -64z"/>
<path d="M6030 3740 c0 -5 14 -10 30 -10 17 0 30 5 30 10 0 6 -13 10 -30 10
-16 0 -30 -4 -30 -10z"/>
<path d="M6110 3740 c0 -5 11 -10 25 -10 14 0 25 5 25 10 0 6 -11 10 -25 10
-14 0 -25 -4 -25 -10z"/>
<path d="M4600 3730 c0 -5 5 -10 10 -10 6 0 10 5 10 10 0 6 -4 10 -10 10 -5 0
-10 -4 -10 -10z"/>
<path d="M4670 3730 c0 -5 5 -10 10 -10 6 0 10 5 10 10 0 6 -4 10 -10 10 -5 0
-10 -4 -10 -10z"/>
<path d="M4700 3730 c0 -5 5 -10 10 -10 6 0 10 5 10 10 0 6 -4 10 -10 10 -5 0
-10 -4 -10 -10z"/>
<path d="M4730 3730 c0 -5 5 -10 10 -10 6 0 10 5 10 10 0 6 -4 10 -10 10 -5 0
-10 -4 -10 -10z"/>
<path d="M4800 3730 c0 -5 5 -10 10 -10 6 0 10 5 10 10 0 6 -4 10 -10 10 -5 0
-10 -4 -10 -10z"/>
<path d="M4830 3730 c0 -5 5 -10 10 -10 6 0 10 5 10 10 0 6 -4 10 -10 10 -5 0
-10 -4 -10 -10z"/>
<path d="M6390 3700 l0 -40 140 0 140 0 0 40 0 40 -140 0 -140 0 0 -40z"/>
<path d="M9950 3661 c0 -84 4 -91 56 -91 23 0 24 2 24 85 l0 85 -40 0 -40 0 0
-79z"/>
<path d="M2747 3724 c-4 -4 -7 -31 -7 -61 0 -47 2 -53 20 -53 19 0 21 5 18 57
-3 52 -14 73 -31 57z"/>
<path d="M3663 3723 c15 -2 39 -2 55 0 15 2 2 4 -28 4 -30 0 -43 -2 -27 -4z"/>
<path d="M7328 3723 c7 -3 16 -2 19 1 4 3 -2 6 -13 5 -11 0 -14 -3 -6 -6z"/>
<path d="M7463 3723 c9 -2 25 -2 35 0 9 3 1 5 -18 5 -19 0 -27 -2 -17 -5z"/>
<path d="M3000 3711 c13 -9 13 -11 -2 -11 -22 0 -23 -16 -2 -24 8 -3 13 -10 9
-15 -3 -6 3 -14 13 -20 15 -8 18 -5 20 14 1 17 -2 23 -12 19 -9 -3 -13 2 -12
17 0 12 -6 24 -14 26 -13 4 -13 3 0 -6z"/>
<path d="M5960 3695 c0 -20 5 -25 25 -25 20 0 25 5 25 25 0 20 -5 25 -25 25
-20 0 -25 -5 -25 -25z"/>
<path d="M6030 3695 c0 -21 5 -25 30 -25 25 0 30 4 30 25 0 21 -5 25 -30 25
-25 0 -30 -4 -30 -25z"/>
<path d="M6110 3695 c0 -21 5 -25 30 -25 25 0 30 4 30 25 0 21 -5 25 -30 25
-25 0 -30 -4 -30 -25z"/>
<path d="M6184 3705 c-8 -21 4 -35 32 -35 19 0 24 5 24 25 0 20 -5 25 -25 25
-14 0 -28 -7 -31 -15z"/>
<path d="M3070 3673 c-3 -23 -2 -39 3 -34 5 5 7 24 5 42 -3 33 -4 33 -8 -8z"/>
<path d="M3640 3698 c0 -5 23 -8 52 -8 28 0 48 3 44 8 -10 9 -96 10 -96 0z"/>
<path d="M4600 3700 c0 -5 5 -10 10 -10 6 0 10 5 10 10 0 6 -4 10 -10 10 -5 0
-10 -4 -10 -10z"/>
<path d="M4670 3700 c0 -5 5 -10 10 -10 6 0 10 5 10 10 0 6 -4 10 -10 10 -5 0
-10 -4 -10 -10z"/>
<path d="M4700 3700 c0 -5 5 -10 10 -10 6 0 10 5 10 10 0 6 -4 10 -10 10 -5 0
-10 -4 -10 -10z"/>
<path d="M4730 3700 c0 -5 5 -10 10 -10 6 0 10 5 10 10 0 6 -4 10 -10 10 -5 0
-10 -4 -10 -10z"/>
<path d="M4800 3700 c0 -5 5 -10 10 -10 6 0 10 5 10 10 0 6 -4 10 -10 10 -5 0
-10 -4 -10 -10z"/>
<path d="M4830 3700 c0 -5 5 -10 10 -10 6 0 10 5 10 10 0 6 -4 10 -10 10 -5 0
-10 -4 -10 -10z"/>
<path d="M4860 3700 c0 -5 5 -10 10 -10 6 0 10 5 10 10 0 6 -4 10 -10 10 -5 0
-10 -4 -10 -10z"/>
<path d="M4900 3700 c0 -5 5 -10 10 -10 6 0 10 5 10 10 0 6 -4 10 -10 10 -5 0
-10 -4 -10 -10z"/>
<path d="M4930 3700 c0 -5 5 -10 10 -10 6 0 10 5 10 10 0 6 -4 10 -10 10 -5 0
-10 -4 -10 -10z"/>
<path d="M7320 3700 c0 -5 5 -10 10 -10 6 0 10 5 10 10 0 6 -4 10 -10 10 -5 0
-10 -4 -10 -10z"/>
<path d="M7460 3700 c0 -5 11 -10 25 -10 14 0 25 5 25 10 0 6 -11 10 -25 10
-14 0 -25 -4 -25 -10z"/>
<path d="M7520 3700 c0 -5 5 -10 10 -10 6 0 10 5 10 10 0 6 -4 10 -10 10 -5 0
-10 -4 -10 -10z"/>
<path d="M3663 3673 c15 -2 39 -2 55 0 15 2 2 4 -28 4 -30 0 -43 -2 -27 -4z"/>
<path d="M7473 3673 c9 -2 23 -2 30 0 6 3 -1 5 -18 5 -16 0 -22 -2 -12 -5z"/>
<path d="M4600 3655 c0 -8 5 -15 10 -15 6 0 10 7 10 15 0 8 -4 15 -10 15 -5 0
-10 -7 -10 -15z"/>
<path d="M4641 3654 c0 -11 3 -14 6 -6 3 7 2 16 -1 19 -3 4 -6 -2 -5 -13z"/>
<path d="M4670 3655 c0 -8 5 -15 10 -15 6 0 10 7 10 15 0 8 -4 15 -10 15 -5 0
-10 -7 -10 -15z"/>
<path d="M4700 3655 c0 -8 5 -15 10 -15 6 0 10 7 10 15 0 8 -4 15 -10 15 -5 0
-10 -7 -10 -15z"/>
<path d="M4730 3655 c0 -8 5 -15 10 -15 6 0 10 7 10 15 0 8 -4 15 -10 15 -5 0
-10 -7 -10 -15z"/>
<path d="M4771 3654 c0 -11 3 -14 6 -6 3 7 2 16 -1 19 -3 4 -6 -2 -5 -13z"/>
<path d="M4800 3655 c0 -8 5 -15 10 -15 6 0 10 7 10 15 0 8 -4 15 -10 15 -5 0
-10 -7 -10 -15z"/>
<path d="M4830 3655 c0 -8 5 -15 10 -15 6 0 10 7 10 15 0 8 -4 15 -10 15 -5 0
-10 -7 -10 -15z"/>
<path d="M4860 3660 c0 -5 5 -10 10 -10 6 0 10 5 10 10 0 6 -4 10 -10 10 -5 0
-10 -4 -10 -10z"/>
<path d="M4900 3660 c0 -5 5 -10 10 -10 6 0 10 5 10 10 0 6 -4 10 -10 10 -5 0
-10 -4 -10 -10z"/>
<path d="M4930 3660 c0 -5 5 -10 10 -10 6 0 10 5 10 10 0 6 -4 10 -10 10 -5 0
-10 -4 -10 -10z"/>
<path d="M3680 3650 c0 -5 9 -10 20 -10 11 0 20 5 20 10 0 6 -9 10 -20 10 -11
0 -20 -4 -20 -10z"/>
<path d="M9563 3630 c-52 -31 -41 -40 52 -40 51 0 85 4 85 10 0 14 -61 50 -85
50 -11 0 -35 -9 -52 -20z"/>
<path d="M3525 3510 c-13 -6 17 -9 85 -9 137 -1 617 -30 845 -51 61 -6 151
-12 201 -15 50 -2 111 -9 135 -14 24 -6 73 -11 109 -11 36 0 153 -10 260 -22
178 -20 244 -22 750 -23 476 0 578 3 720 19 91 10 221 22 290 27 131 9 284 22
460 39 189 17 690 47 840 50 20 0 22 2 10 10 -19 12 -4676 12 -4705 0z"/>
<path d="M3220 3165 c-57 -18 -115 -66 -140 -116 -11 -21 -20 -42 -20 -47 0
-9 66 -32 92 -32 7 0 22 14 31 30 10 17 31 37 47 45 35 18 119 20 155 3 27
-12 33 -8 70 54 16 27 16 27 -27 49 -54 27 -147 34 -208 14z"/>
<path d="M3560 2905 l0 -275 175 0 175 0 0 60 0 60 -115 0 -115 0 0 215 0 215
-60 0 -60 0 0 -275z"/>
<path d="M4109 3165 c-64 -20 -131 -83 -159 -147 -94 -215 101 -439 324 -374
66 20 135 77 169 141 29 54 31 183 3 235 -26 49 -84 108 -131 132 -51 27 -146
32 -206 13z m171 -127 c55 -38 74 -72 74 -132 0 -89 -66 -156 -154 -156 -88 0
-150 55 -158 140 -9 96 58 170 154 170 36 0 60 -6 84 -22z"/>
<path d="M4540 2905 l0 -275 123 0 c142 0 193 17 227 72 26 44 27 130 1 178
-16 30 -17 42 -8 87 19 95 -27 179 -111 203 -20 5 -81 10 -134 10 l-98 0 0
-275z m218 143 c7 -7 12 -26 12 -43 0 -43 -16 -55 -72 -55 l-48 0 0 55 0 55
48 0 c26 0 53 -5 60 -12z m35 -229 c5 -9 7 -28 3 -42 -6 -26 -9 -27 -76 -27
l-70 0 0 45 0 46 66 -3 c48 -2 70 -8 77 -19z"/>
<path d="M5140 3178 c0 -2 -43 -122 -95 -268 -52 -146 -95 -268 -95 -272 0 -5
26 -8 58 -8 l59 0 19 55 18 56 91 -3 90 -3 19 -52 19 -53 59 0 c44 0 59 3 56
13 -3 6 -47 130 -99 275 l-93 262 -53 0 c-29 0 -53 -1 -53 -2z m99 -325 c1 -9
-15 -13 -49 -13 l-50 0 25 66 c14 37 25 69 26 73 1 9 48 -112 48 -126z"/>
<path d="M5502 2908 l3 -273 173 -3 172 -2 0 60 0 60 -115 0 -115 0 0 215 0
215 -60 0 -60 0 2 -272z"/>
<path d="M6345 3168 c-130 -363 -185 -522 -185 -529 0 -5 26 -9 58 -9 l57 0
26 73 c14 39 29 71 33 70 3 -2 37 -3 75 -3 l68 0 25 -67 25 -68 61 -3 62 -3
-26 72 c-21 58 -23 73 -12 80 7 5 16 9 21 9 4 0 7 24 7 54 l0 53 -57 -13 c-32
-8 -93 -14 -135 -14 -87 0 -90 3 -62 68 17 40 18 40 44 -32 10 -28 12 -28 63
-22 28 4 53 9 56 11 2 3 -18 66 -45 142 l-49 138 -53 3 c-36 2 -54 -1 -57 -10z"/>
<path d="M6710 2905 l0 -276 58 3 57 3 3 73 3 72 60 0 c110 0 183 63 196 167
7 65 -10 115 -56 166 -51 57 -82 67 -211 67 l-110 0 0 -275z m213 153 c34 -18
46 -40 47 -84 0 -59 -17 -76 -84 -82 l-56 -4 0 91 0 91 36 0 c19 0 45 -5 57
-12z"/>
<path d="M7160 2905 l0 -275 55 0 55 0 0 75 0 75 59 0 c71 0 106 12 145 48 38
36 56 81 56 142 0 89 -41 157 -115 191 -31 14 -64 19 -147 19 l-108 0 0 -275z
m232 138 c11 -11 22 -38 25 -61 5 -34 1 -44 -20 -66 -21 -21 -36 -26 -77 -26
l-50 0 0 91 0 92 51 -5 c32 -3 58 -12 71 -25z"/>
<path d="M7695 3163 c-128 -67 -142 -212 -28 -289 17 -12 60 -27 95 -34 70
-13 88 -24 88 -51 0 -25 -30 -39 -85 -39 -38 0 -52 5 -75 28 l-28 29 -46 -26
c-25 -14 -46 -30 -46 -35 0 -5 19 -28 43 -51 120 -121 351 -60 351 92 0 94
-47 142 -159 163 -36 7 -76 21 -88 31 -21 17 -21 19 -7 46 30 55 130 53 167
-3 l15 -23 49 27 c27 15 49 29 49 32 0 17 -70 85 -104 101 -51 23 -149 24
-191 2z"/>
<path d="M8052 2908 l3 -273 183 -3 183 -2 -3 57 -3 58 -122 3 -123 3 0 34 0
35 85 0 85 0 0 55 0 55 -85 0 -85 0 0 70 0 70 115 0 115 0 0 55 0 55 -175 0
-175 0 2 -272z"/>
<path d="M8660 3171 c-50 -16 -87 -41 -124 -81 -53 -59 -69 -103 -70 -185 0
-111 52 -194 152 -244 90 -46 216 -33 285 29 l32 29 -39 39 -38 40 -37 -25
c-30 -21 -45 -24 -92 -21 -94 7 -149 66 -149 161 0 53 30 102 79 131 47 27
123 26 163 -4 l30 -22 39 38 c37 36 38 39 21 57 -45 50 -181 82 -252 58z"/>
<path d="M3006 2951 c-21 -55 -20 -68 7 -75 16 -4 26 -17 34 -48 17 -62 72
-129 134 -163 47 -26 64 -30 134 -29 60 0 92 5 128 21 l47 22 0 123 0 123
-118 1 c-111 2 -168 12 -328 59 -18 6 -24 0 -38 -34z m292 -138 l82 -6 0 -28
c0 -29 -1 -29 -58 -29 -64 0 -116 22 -141 60 -15 23 -15 23 9 17 14 -4 62 -10
108 -14z"/>
<path d="M2170 2180 l0 -140 205 0 205 0 0 -535 0 -536 138 3 137 3 3 533 2
532 200 0 200 0 0 140 0 140 -545 0 -545 0 0 -140z"/>
<path d="M3430 1645 l0 -675 448 2 447 3 3 138 3 137 -311 0 -310 0 0 100 0
100 215 0 215 0 0 125 0 125 -215 0 -215 0 0 170 0 170 285 0 285 0 0 140 0
140 -425 0 -425 0 0 -675z"/>
<path d="M4567 2314 c-4 -4 -7 -254 -7 -556 0 -515 1 -548 18 -548 20 0 219
-45 245 -55 16 -7 17 23 15 576 l-3 584 -131 3 c-71 1 -133 -1 -137 -4z"/>
<path d="M6306 2312 c-6 -9 -476 -1331 -476 -1338 0 -2 66 -3 147 -2 l148 3
62 174 c34 95 63 175 65 176 2 2 23 -1 48 -5 25 -5 109 -12 187 -16 l141 -7
58 -164 58 -163 148 0 c81 0 148 1 148 3 0 2 -29 84 -65 182 -36 99 -65 180
-65 181 0 1 27 7 60 14 l60 13 0 128 c0 71 -1 129 -3 129 -1 0 -52 -11 -112
-25 -156 -35 -336 -50 -463 -38 -56 6 -105 12 -107 15 -5 5 67 215 83 245 6
10 22 -21 52 -106 l42 -121 64 0 c53 0 215 17 221 24 2 1 -127 367 -223 634
l-26 72 -123 0 c-68 0 -126 -4 -129 -8z"/>
<path d="M6870 2313 c-1 -5 106 -308 237 -675 l238 -668 126 0 127 0 15 43 c8
23 94 265 192 537 97 272 199 557 226 633 l48 137 -148 0 -148 0 -154 -429
c-85 -237 -157 -427 -161 -423 -4 4 -74 196 -156 427 l-150 420 -146 3 c-80 1
-146 -1 -146 -5z"/>
<path d="M8240 1645 l0 -675 140 0 140 0 0 675 0 675 -140 0 -140 0 0 -675z"/>
<path d="M8620 2313 c1 -5 108 -307 239 -673 l238 -665 128 0 128 0 238 665
c131 366 238 668 239 673 0 4 -66 6 -147 5 l-148 -3 -72 -200 c-39 -110 -109
-305 -155 -432 l-84 -233 -154 433 -155 432 -147 3 c-82 1 -148 -1 -148 -5z"/>
<path d="M4440 1079 c0 -57 -3 -113 -6 -124 -5 -19 2 -22 74 -32 43 -7 155
-32 248 -57 258 -69 464 -106 592 -106 l42 0 0 124 0 123 -92 8 c-134 10 -214
26 -478 93 -129 33 -268 64 -307 68 l-73 7 0 -104z"/>
<path d="M5878 590 c-69 -37 -118 -122 -118 -205 0 -26 1 -26 62 -23 l63 3 6
38 c9 54 37 80 90 80 34 0 47 -6 66 -27 49 -57 20 -108 -117 -205 -113 -81
-151 -129 -158 -200 l-5 -51 212 0 212 0 -3 63 -3 62 -100 5 -100 5 61 42
c104 71 146 137 147 228 1 78 -43 149 -115 186 -50 26 -150 25 -200 -1z"/>
<path d="M6412 593 c-49 -24 -118 -107 -139 -166 -23 -66 -22 -175 1 -244 21
-63 87 -140 141 -164 113 -52 246 11 307 146 18 40 22 68 23 140 0 82 -3 96
-33 157 -33 68 -82 117 -136 138 -41 15 -127 12 -164 -7z m144 -129 c33 -20
64 -93 64 -150 0 -110 -48 -184 -120 -184 -31 0 -44 6 -68 35 -57 64 -68 160
-27 242 38 76 90 96 151 57z"/>
<path d="M6832 532 l-83 -77 45 -44 45 -44 48 44 48 44 3 -228 2 -227 60 0 60
0 0 305 0 305 -72 0 -73 -1 -83 -77z"/>
<path d="M7260 599 c-104 -42 -161 -161 -126 -266 24 -74 107 -143 171 -143
14 0 25 -4 25 -9 0 -6 -16 -44 -35 -87 -19 -42 -35 -81 -35 -86 0 -5 30 -8 67
-6 l67 3 74 165 c40 90 75 182 79 205 11 87 -40 179 -122 216 -43 20 -125 24
-165 8z m135 -144 c37 -36 34 -86 -6 -119 -40 -34 -74 -33 -110 3 -56 57 -23
141 56 141 25 0 44 -8 60 -25z"/>
</g>
</svg>
